<?xml version="1.0" encoding="UTF-8" standalone="no"?>
<!DOCTYPE svg PUBLIC "-//W3C//DTD SVG 1.1//EN" "http://www.w3.org/Graphics/SVG/1.1/DTD/svg11.dtd">
<svg width="100%" height="100%" viewBox="0 0 930 236" version="1.1" xmlns="http://www.w3.org/2000/svg" xmlns:xlink="http://www.w3.org/1999/xlink" xml:space="preserve" xmlns:serif="http://www.serif.com/" style="fill-rule:evenodd;clip-rule:evenodd;stroke-linejoin:round;stroke-miterlimit:2;">
    <g transform="matrix(-4.16667,0,0,4.16667,1172.72,-2017.58)">
        <rect x="229.115" y="491.068" width="8.081" height="25.729" style="fill:rgb(0,47,84);"/>
    </g>
    <g transform="matrix(4.16667,0,0,4.16667,229.528,135.718)">
        <path d="M0,-25.736L18.005,-25.736L18.005,-19.54L8.071,-19.54L8.071,-15.375L16.903,-15.375L16.903,-9.183L8.071,-9.183L8.071,0L0,0L0,-25.736Z" style="fill:rgb(0,47,84);fill-rule:nonzero;"/>
    </g>
    <g transform="matrix(4.16667,0,0,4.16667,-770.246,-2103.05)">
        <rect x="293.095" y="510.283" width="2.076" height="7.812" style="fill:rgb(0,174,239);"/>
    </g>
    <g transform="matrix(4.16667,0,0,4.16667,465.238,55.1154)">
        <path d="M0,-5.697L1.836,-5.697L1.836,-4.625L1.858,-4.625C2.264,-5.463 3.069,-5.831 3.983,-5.831C5.571,-5.831 6.211,-4.712 6.211,-3.504L6.211,0.134L4.192,0.134L4.192,-2.688C4.192,-3.783 3.818,-4.153 3.269,-4.153C2.444,-4.153 2.01,-3.583 2.01,-2.331L2.01,0.134L0,0.134L0,-5.697Z" style="fill:rgb(0,174,239);fill-rule:nonzero;"/>
    </g>
    <g transform="matrix(4.16667,0,0,4.16667,493.733,48.2112)">
        <path d="M0,-4.04L1.183,-4.04L1.183,-5.349L3.166,-5.964L3.166,-4.04L4.574,-4.04L4.574,-2.63L3.166,-2.63L3.166,-0.485C3.166,0.222 3.33,0.581 3.968,0.581C4.169,0.581 4.385,0.538 4.587,0.505L4.656,1.815C4.271,1.859 3.895,1.924 3.386,1.924C1.587,1.924 1.149,1.129 1.149,-0.257L1.149,-2.63L0,-2.63L0,-4.04Z" style="fill:rgb(0,174,239);fill-rule:nonzero;"/>
    </g>
    <g transform="matrix(4.16667,0,0,4.16667,532.671,45.8354)">
        <path d="M0,-1.109C0,-1.78 -0.317,-2.326 -1.118,-2.326C-1.852,-2.326 -2.196,-1.78 -2.242,-1.109L0,-1.109ZM-2.217,0.034C-2.108,0.841 -1.49,1.151 -0.502,1.151C0.039,1.151 0.667,1.031 1.273,0.703L1.273,2.125C0.627,2.385 -0.114,2.495 -0.866,2.495C-2.793,2.495 -4.257,1.362 -4.257,-0.561C-4.257,-2.484 -2.947,-3.604 -1.135,-3.604C1.024,-3.604 1.808,-2.07 1.808,-0.336L1.808,0.034L-2.217,0.034Z" style="fill:rgb(0,174,239);fill-rule:nonzero;"/>
    </g>
    <g transform="matrix(4.16667,0,0,4.16667,561.465,48.3979)">
        <path d="M0,-2.472C-0.227,-2.541 -0.443,-2.541 -0.685,-2.541C-1.623,-2.541 -2.15,-1.856 -2.15,-0.717L-2.15,1.747L-4.161,1.747L-4.161,-4.084L-2.323,-4.084L-2.323,-3.013L-2.303,-3.013C-1.958,-3.75 -1.458,-4.219 -0.581,-4.219C-0.348,-4.219 -0.103,-4.184 0.104,-4.15L0,-2.472Z" style="fill:rgb(0,174,239);fill-rule:nonzero;"/>
    </g>
    <g transform="matrix(4.16667,0,0,4.16667,565.182,55.1154)">
        <path d="M0,-5.697L1.839,-5.697L1.839,-4.625L1.857,-4.625C2.263,-5.463 3.067,-5.831 3.987,-5.831C5.573,-5.831 6.211,-4.712 6.211,-3.504L6.211,0.134L4.195,0.134L4.195,-2.688C4.195,-3.783 3.818,-4.153 3.266,-4.153C2.439,-4.153 2.014,-3.583 2.014,-2.331L2.014,0.134L0,0.134L0,-5.697Z" style="fill:rgb(0,174,239);fill-rule:nonzero;"/>
    </g>
    <g transform="matrix(4.16667,0,0,4.16667,605.92,36.4179)">
        <path d="M0,3.411C0.766,3.411 1.245,2.718 1.245,2.034C0.989,2.021 0.695,2.003 0.395,2.003C-0.291,2.003 -0.823,2.216 -0.823,2.778C-0.823,3.178 -0.468,3.411 0,3.411M1.391,4.622C1.376,4.308 1.343,4.006 1.343,3.702L1.322,3.702C0.866,4.432 0.304,4.755 -0.52,4.755C-1.675,4.755 -2.707,4.184 -2.707,2.92C-2.707,1.137 -0.77,0.931 0.304,0.931C0.626,0.931 0.989,0.96 1.245,1.003C1.231,0.213 0.639,0 -0.086,0C-0.739,0 -1.385,0.124 -1.939,0.435L-1.976,-0.929C-1.261,-1.217 -0.513,-1.344 0.352,-1.344C1.838,-1.344 3.122,-0.708 3.122,1.072L3.122,3.245C3.122,3.702 3.144,4.161 3.238,4.622L1.391,4.622Z" style="fill:rgb(0,174,239);fill-rule:nonzero;"/>
    </g>
    <g transform="matrix(4.16667,0,0,4.16667,621.707,48.2112)">
        <path d="M0,-4.04L1.18,-4.04L1.18,-5.349L3.165,-5.964L3.165,-4.04L4.574,-4.04L4.574,-2.63L3.165,-2.63L3.165,-0.485C3.165,0.222 3.329,0.581 3.967,0.581C4.17,0.581 4.379,0.538 4.585,0.505L4.65,1.815C4.275,1.859 3.894,1.924 3.383,1.924C1.583,1.924 1.146,1.129 1.146,-0.257L1.146,-2.63L0,-2.63L0,-4.04Z" style="fill:rgb(0,174,239);fill-rule:nonzero;"/>
    </g>
    <g transform="matrix(4.16667,0,0,4.16667,-770.246,-2104.9)">
        <path d="M339.674,512.708L341.686,512.708L341.686,518.539L339.674,518.539L339.674,512.708ZM341.684,511.758L339.674,511.758L339.674,510.282L341.684,510.282L341.684,511.758Z" style="fill:rgb(0,174,239);fill-rule:nonzero;"/>
    </g>
    <g transform="matrix(4.16667,0,0,4.16667,677.597,43.5)">
        <path d="M0,0.013C0,-0.862 -0.382,-1.633 -1.312,-1.633C-2.239,-1.633 -2.619,-0.862 -2.619,0.013C-2.619,0.874 -2.239,1.643 -1.312,1.643C-0.382,1.643 0,0.874 0,0.013M-4.7,0.013C-4.7,-1.924 -3.237,-3.044 -1.312,-3.044C0.612,-3.044 2.082,-1.924 2.082,0.013C2.082,1.937 0.612,3.057 -1.312,3.057C-3.237,3.057 -4.7,1.937 -4.7,0.013" style="fill:rgb(0,174,239);fill-rule:nonzero;"/>
    </g>
    <g transform="matrix(4.16667,0,0,4.16667,689.851,55.1154)">
        <path d="M0,-5.697L1.833,-5.697L1.833,-4.625L1.854,-4.625C2.257,-5.463 3.065,-5.831 3.982,-5.831C5.572,-5.831 6.21,-4.712 6.21,-3.504L6.21,0.134L4.192,0.134L4.192,-2.688C4.192,-3.783 3.812,-4.153 3.27,-4.153C2.436,-4.153 2.013,-3.583 2.013,-2.331L2.013,0.134L0,0.134L0,-5.697Z" style="fill:rgb(0,174,239);fill-rule:nonzero;"/>
    </g>
    <g transform="matrix(4.16667,0,0,4.16667,730.581,36.4179)">
        <path d="M0,3.411C0.764,3.411 1.243,2.718 1.243,2.034C0.982,2.021 0.696,2.003 0.389,2.003C-0.289,2.003 -0.829,2.216 -0.829,2.778C-0.829,3.178 -0.472,3.411 0,3.411M1.393,4.622C1.381,4.308 1.345,4.006 1.345,3.702L1.321,3.702C0.863,4.432 0.302,4.755 -0.522,4.755C-1.68,4.755 -2.705,4.184 -2.705,2.92C-2.705,1.137 -0.772,0.931 0.302,0.931C0.632,0.931 0.982,0.96 1.243,1.003C1.232,0.213 0.643,0 -0.089,0C-0.735,0 -1.387,0.124 -1.943,0.435L-1.98,-0.929C-1.259,-1.217 -0.513,-1.344 0.355,-1.344C1.84,-1.344 3.124,-0.708 3.124,1.072L3.124,3.245C3.124,3.702 3.146,4.161 3.235,4.622L1.393,4.622Z" style="fill:rgb(0,174,239);fill-rule:nonzero;"/>
    </g>
    <g transform="matrix(4.16667,0,0,4.16667,-770.246,-2105.48)">
        <rect x="364.731" y="510.284" width="2.017" height="8.391" style="fill:rgb(0,174,239);"/>
    </g>
    <g transform="matrix(4.16667,0,0,4.16667,451.034,99.8771)">
        <path d="M0,-7.808L5.228,-7.808L5.228,-6.333L2.081,-6.333L2.081,-4.621L5.092,-4.621L5.092,-3.144L2.081,-3.144L2.081,0L0,0L0,-7.808Z" style="fill:rgb(0,174,239);fill-rule:nonzero;"/>
    </g>
    <g transform="matrix(4.16667,0,0,4.16667,-770.246,-2016.5)">
        <path d="M299.405,502.099L301.426,502.099L301.426,507.93L299.405,507.93L299.405,502.099ZM301.426,501.151L299.405,501.151L299.405,499.674L301.426,499.674L301.426,501.151Z" style="fill:rgb(0,174,239);fill-rule:nonzero;"/>
    </g>
    <g transform="matrix(4.16667,0,0,4.16667,491.409,99.3063)">
        <path d="M0,-5.692L1.837,-5.692L1.837,-4.618L1.857,-4.618C2.258,-5.459 3.063,-5.829 3.98,-5.829C5.575,-5.829 6.214,-4.709 6.214,-3.497L6.214,0.137L4.199,0.137L4.199,-2.683C4.199,-3.779 3.818,-4.148 3.262,-4.148C2.436,-4.148 2.013,-3.575 2.013,-2.327L2.013,0.137L0,0.137L0,-5.692Z" style="fill:rgb(0,174,239);fill-rule:nonzero;"/>
    </g>
    <g transform="matrix(4.16667,0,0,4.16667,532.154,80.6129)">
        <path d="M0,3.416C0.759,3.416 1.246,2.723 1.246,2.04C0.982,2.025 0.696,2.004 0.392,2.004C-0.288,2.004 -0.827,2.217 -0.827,2.778C-0.827,3.179 -0.469,3.416 0,3.416M1.386,4.623C1.376,4.311 1.345,4.008 1.345,3.705L1.323,3.705C0.859,4.434 0.305,4.759 -0.53,4.759C-1.678,4.759 -2.707,4.188 -2.707,2.92C-2.707,1.144 -0.776,0.934 0.305,0.934C0.622,0.934 0.982,0.965 1.246,1.007C1.231,0.216 0.637,0.002 -0.087,0.002C-0.736,0.002 -1.389,0.125 -1.945,0.438L-1.98,-0.927C-1.263,-1.216 -0.516,-1.343 0.346,-1.343C1.837,-1.343 3.124,-0.702 3.124,1.079L3.124,3.246C3.124,3.705 3.145,4.166 3.234,4.623L1.386,4.623Z" style="fill:rgb(0,174,239);fill-rule:nonzero;"/>
    </g>
    <g transform="matrix(4.16667,0,0,4.16667,550.054,99.3063)">
        <path d="M0,-5.692L1.835,-5.692L1.835,-4.618L1.854,-4.618C2.259,-5.459 3.065,-5.829 3.98,-5.829C5.572,-5.829 6.208,-4.709 6.208,-3.497L6.208,0.137L4.198,0.137L4.198,-2.683C4.198,-3.779 3.813,-4.148 3.267,-4.148C2.439,-4.148 2.016,-3.575 2.016,-2.327L2.016,0.137L0,0.137L0,-5.692Z" style="fill:rgb(0,174,239);fill-rule:nonzero;"/>
    </g>
    <g transform="matrix(4.16667,0,0,4.16667,599.694,92.9271)">
        <path d="M0,-2.495C-0.366,-2.716 -0.737,-2.819 -1.216,-2.819C-2.096,-2.819 -2.761,-2.211 -2.761,-1.207C-2.761,-0.28 -1.981,0.326 -1.101,0.326C-0.645,0.326 -0.188,0.223 0.142,0.047L0.194,1.546C-0.308,1.713 -0.919,1.804 -1.455,1.804C-3.372,1.804 -4.847,0.68 -4.847,-1.24C-4.847,-3.178 -3.372,-4.299 -1.455,-4.299C-0.847,-4.299 -0.308,-4.196 0.142,-3.971L0,-2.495Z" style="fill:rgb(0,174,239);fill-rule:nonzero;"/>
    </g>
    <g transform="matrix(4.16667,0,0,4.16667,620.059,90.0371)">
        <path d="M0,-1.107C0,-1.776 -0.305,-2.325 -1.115,-2.325C-1.841,-2.325 -2.186,-1.776 -2.231,-1.107L0,-1.107ZM-2.208,0.036C-2.097,0.838 -1.481,1.155 -0.499,1.155C0.051,1.155 0.677,1.031 1.281,0.707L1.281,2.125C0.625,2.384 -0.109,2.496 -0.856,2.496C-2.78,2.496 -4.249,1.366 -4.249,-0.557C-4.249,-2.485 -2.941,-3.603 -1.122,-3.603C1.03,-3.603 1.816,-2.07 1.816,-0.333L1.816,0.036L-2.208,0.036Z" style="fill:rgb(0,174,239);fill-rule:nonzero;"/>
    </g>
    <g transform="matrix(4.16667,0,0,4.16667,672.885,68.0937)">
        <path d="M0,7.448C-0.592,7.593 -1.25,7.764 -2.317,7.764C-4.396,7.764 -6.796,6.71 -6.796,3.757C-6.796,1.035 -4.895,-0.316 -2.324,-0.316C-1.525,-0.316 -0.758,-0.134 -0.013,0.085L-0.179,1.775C-0.85,1.408 -1.498,1.229 -2.219,1.229C-3.69,1.229 -4.652,2.303 -4.652,3.757C-4.652,5.29 -3.564,6.218 -2.048,6.218C-1.363,6.218 -0.668,6.038 -0.101,5.813L0,7.448Z" style="fill:rgb(0,174,239);fill-rule:nonzero;"/>
    </g>
    <g transform="matrix(4.16667,0,0,4.16667,694.395,87.7042)">
        <path d="M0,0.012C0,-0.858 -0.378,-1.632 -1.313,-1.632C-2.238,-1.632 -2.619,-0.858 -2.619,0.012C-2.619,0.874 -2.238,1.646 -1.313,1.646C-0.378,1.646 0,0.874 0,0.012M-4.703,0.012C-4.703,-1.925 -3.235,-3.045 -1.313,-3.045C0.613,-3.045 2.079,-1.925 2.079,0.012C2.079,1.934 0.613,3.057 -1.313,3.057C-3.235,3.057 -4.703,1.934 -4.703,0.012" style="fill:rgb(0,174,239);fill-rule:nonzero;"/>
    </g>
    <g transform="matrix(4.16667,0,0,4.16667,724.016,92.6038)">
        <path d="M0,-2.473C-0.235,-2.539 -0.452,-2.539 -0.69,-2.539C-1.622,-2.539 -2.152,-1.855 -2.152,-0.717L-2.152,1.746L-4.167,1.746L-4.167,-4.083L-2.335,-4.083L-2.335,-3.009L-2.314,-3.009C-1.97,-3.749 -1.461,-4.219 -0.588,-4.219C-0.352,-4.219 -0.108,-4.183 0.097,-4.15L0,-2.473Z" style="fill:rgb(0,174,239);fill-rule:nonzero;"/>
    </g>
    <g transform="matrix(4.16667,0,0,4.16667,740.65,103.23)">
        <path d="M0,-5.222C-0.738,-5.222 -1.233,-4.576 -1.233,-3.702C-1.233,-2.851 -0.672,-2.214 0,-2.214C0.757,-2.214 1.22,-2.851 1.22,-3.783C1.22,-4.553 0.783,-5.222 0,-5.222M-3.245,-6.634L-1.392,-6.634L-1.392,-5.582L-1.367,-5.582C-0.958,-6.4 -0.114,-6.769 0.811,-6.769C2.415,-6.769 3.303,-5.237 3.303,-3.824C3.303,-2.102 2.373,-0.669 0.633,-0.669C-0.072,-0.669 -0.831,-0.927 -1.209,-1.622L-1.233,-1.622L-1.233,1.547L-3.245,1.547L-3.245,-6.634Z" style="fill:rgb(0,174,239);fill-rule:nonzero;"/>
    </g>
    <g transform="matrix(4.16667,0,0,4.16667,776.405,87.7042)">
        <path d="M0,0.012C0,-0.858 -0.384,-1.632 -1.311,-1.632C-2.236,-1.632 -2.615,-0.858 -2.615,0.012C-2.615,0.874 -2.236,1.646 -1.311,1.646C-0.384,1.646 0,0.874 0,0.012M-4.704,0.012C-4.704,-1.925 -3.233,-3.045 -1.311,-3.045C0.614,-3.045 2.08,-1.925 2.08,0.012C2.08,1.934 0.614,3.057 -1.311,3.057C-3.233,3.057 -4.704,1.934 -4.704,0.012" style="fill:rgb(0,174,239);fill-rule:nonzero;"/>
    </g>
    <g transform="matrix(4.16667,0,0,4.16667,805.998,92.6038)">
        <path d="M0,-2.473C-0.22,-2.539 -0.444,-2.539 -0.68,-2.539C-1.621,-2.539 -2.146,-1.855 -2.146,-0.717L-2.146,1.746L-4.157,1.746L-4.157,-4.083L-2.323,-4.083L-2.323,-3.009L-2.302,-3.009C-1.955,-3.749 -1.451,-4.219 -0.581,-4.219C-0.345,-4.219 -0.098,-4.183 0.103,-4.15L0,-2.473Z" style="fill:rgb(0,174,239);fill-rule:nonzero;"/>
    </g>
    <g transform="matrix(4.16667,0,0,4.16667,819.025,80.6129)">
        <path d="M0,3.416C0.761,3.416 1.237,2.723 1.237,2.04C0.986,2.025 0.692,2.004 0.391,2.004C-0.298,2.004 -0.836,2.217 -0.836,2.778C-0.836,3.179 -0.475,3.416 0,3.416M1.385,4.623C1.372,4.311 1.34,4.008 1.34,3.705L1.317,3.705C0.857,4.434 0.294,4.759 -0.528,4.759C-1.683,4.759 -2.716,4.188 -2.716,2.92C-2.716,1.144 -0.777,0.934 0.294,0.934C0.624,0.934 0.986,0.965 1.237,1.007C1.227,0.216 0.636,0.002 -0.094,0.002C-0.744,0.002 -1.394,0.125 -1.955,0.438L-1.983,-0.927C-1.264,-1.216 -0.52,-1.343 0.345,-1.343C1.832,-1.343 3.119,-0.702 3.119,1.079L3.119,3.246C3.119,3.705 3.143,4.166 3.229,4.623L1.385,4.623Z" style="fill:rgb(0,174,239);fill-rule:nonzero;"/>
    </g>
    <g transform="matrix(4.16667,0,0,4.16667,834.765,92.4271)">
        <path d="M0,-4.041L1.188,-4.041L1.188,-5.347L3.172,-5.965L3.172,-4.041L4.575,-4.041L4.575,-2.629L3.172,-2.629L3.172,-0.483C3.172,0.22 3.332,0.582 3.975,0.582C4.172,0.582 4.385,0.533 4.585,0.502L4.656,1.811C4.271,1.856 3.89,1.924 3.392,1.924C1.595,1.924 1.154,1.125 1.154,-0.258L1.154,-2.629L0,-2.629L0,-4.041Z" style="fill:rgb(0,174,239);fill-rule:nonzero;"/>
    </g>
    <g transform="matrix(4.16667,0,0,4.16667,-770.246,-2016.5)">
        <path d="M390.808,502.099L392.821,502.099L392.821,507.93L390.808,507.93L390.808,502.099ZM392.821,501.151L390.808,501.151L390.808,499.674L392.821,499.674L392.821,501.151Z" style="fill:rgb(0,174,239);fill-rule:nonzero;"/>
    </g>
    <g transform="matrix(4.16667,0,0,4.16667,890.675,87.7042)">
        <path d="M0,0.012C0,-0.858 -0.384,-1.632 -1.31,-1.632C-2.236,-1.632 -2.615,-0.858 -2.615,0.012C-2.615,0.874 -2.236,1.646 -1.31,1.646C-0.384,1.646 0,0.874 0,0.012M-4.699,0.012C-4.699,-1.925 -3.244,-3.045 -1.31,-3.045C0.611,-3.045 2.078,-1.925 2.078,0.012C2.078,1.934 0.611,3.057 -1.31,3.057C-3.244,3.057 -4.699,1.934 -4.699,0.012" style="fill:rgb(0,174,239);fill-rule:nonzero;"/>
    </g>
    <g transform="matrix(4.16667,0,0,4.16667,902.93,99.3063)">
        <path d="M0,-5.692L1.836,-5.692L1.836,-4.618L1.854,-4.618C2.26,-5.459 3.067,-5.829 3.978,-5.829C5.572,-5.829 6.206,-4.709 6.206,-3.497L6.206,0.137L4.195,0.137L4.195,-2.683C4.195,-3.779 3.814,-4.148 3.263,-4.148C2.438,-4.148 2.017,-3.575 2.017,-2.327L2.017,0.137L0,0.137L0,-5.692Z" style="fill:rgb(0,174,239);fill-rule:nonzero;"/>
    </g>
    <g transform="matrix(135.298,0,0,135.298,156.438,133.256)">
        <path d="M-1.156,-0.38C-1.156,-0.322 -1.148,-0.267 -1.133,-0.214C-1.132,-0.21 -1.131,-0.207 -1.13,-0.203C-1.13,-0.202 -1.129,-0.202 -1.129,-0.201C-1.053,0.046 -0.823,0.226 -0.551,0.226C-0.425,0.226 -0.309,0.187 -0.212,0.121C-0.211,0.121 -0.21,0.12 -0.209,0.12C-0.203,0.116 -0.198,0.112 -0.192,0.107C-0.081,0.025 0.001,-0.095 0.036,-0.233C0.038,-0.239 0.04,-0.246 0.041,-0.252C0.041,-0.254 0.041,-0.255 0.042,-0.257C0.05,-0.296 0.054,-0.338 0.054,-0.38C0.054,-0.461 0.038,-0.541 0.007,-0.615C0.001,-0.63 -0.016,-0.636 -0.03,-0.63C-0.044,-0.624 -0.051,-0.608 -0.045,-0.593C-0.017,-0.526 -0.002,-0.454 -0.002,-0.38C-0.002,-0.334 -0.008,-0.29 -0.018,-0.248C-0.027,-0.221 -0.041,-0.197 -0.061,-0.174C-0.061,-0.184 -0.061,-0.193 -0.061,-0.203C-0.06,-0.311 -0.09,-0.425 -0.146,-0.533C-0.105,-0.567 -0.079,-0.61 -0.07,-0.659C-0.067,-0.674 -0.077,-0.689 -0.093,-0.691C-0.108,-0.694 -0.123,-0.684 -0.125,-0.669C-0.131,-0.637 -0.148,-0.608 -0.174,-0.583C-0.182,-0.596 -0.19,-0.609 -0.199,-0.622C-0.248,-0.695 -0.307,-0.758 -0.371,-0.808C-0.287,-0.802 -0.208,-0.781 -0.145,-0.746C-0.135,-0.74 -0.122,-0.741 -0.113,-0.748C-0.101,-0.758 -0.099,-0.776 -0.109,-0.788C-0.2,-0.915 -0.357,-0.985 -0.551,-0.985C-0.885,-0.985 -1.156,-0.713 -1.156,-0.38ZM-0.537,-0.902C-0.562,-0.912 -0.588,-0.92 -0.612,-0.925C-0.593,-0.927 -0.572,-0.929 -0.552,-0.929C-0.542,-0.928 -0.53,-0.917 -0.518,-0.895C-0.524,-0.897 -0.531,-0.9 -0.537,-0.902ZM-0.476,-0.925C-0.453,-0.922 -0.429,-0.918 -0.404,-0.912C-0.419,-0.904 -0.435,-0.893 -0.452,-0.881C-0.459,-0.897 -0.467,-0.912 -0.476,-0.925ZM-0.381,-0.864C-0.362,-0.877 -0.344,-0.885 -0.329,-0.889C-0.301,-0.877 -0.273,-0.863 -0.246,-0.845C-0.289,-0.855 -0.334,-0.862 -0.381,-0.864ZM-0.838,-0.79C-0.832,-0.819 -0.814,-0.845 -0.787,-0.867C-0.721,-0.887 -0.645,-0.882 -0.564,-0.852C-0.598,-0.847 -0.632,-0.839 -0.665,-0.829C-0.727,-0.81 -0.786,-0.785 -0.84,-0.754C-0.841,-0.766 -0.84,-0.778 -0.838,-0.79ZM-0.891,-0.811C-0.891,-0.808 -0.892,-0.805 -0.893,-0.802C-0.899,-0.775 -0.898,-0.748 -0.891,-0.721C-0.952,-0.679 -1.004,-0.63 -1.046,-0.574C-1.059,-0.557 -1.07,-0.54 -1.081,-0.523C-1.05,-0.638 -0.982,-0.738 -0.891,-0.811ZM-0.77,-0.631C-0.793,-0.653 -0.81,-0.676 -0.822,-0.699C-0.77,-0.73 -0.711,-0.756 -0.649,-0.775C-0.612,-0.786 -0.575,-0.794 -0.537,-0.8C-0.591,-0.739 -0.645,-0.663 -0.694,-0.576C-0.723,-0.592 -0.748,-0.611 -0.77,-0.631ZM-0.529,-0.514C-0.57,-0.522 -0.608,-0.535 -0.644,-0.551C-0.592,-0.643 -0.534,-0.722 -0.478,-0.782C-0.46,-0.712 -0.445,-0.619 -0.439,-0.502C-0.468,-0.504 -0.499,-0.507 -0.529,-0.514ZM-0.417,-0.772C-0.353,-0.724 -0.295,-0.663 -0.245,-0.591C-0.236,-0.577 -0.227,-0.563 -0.219,-0.549C-0.264,-0.523 -0.321,-0.508 -0.382,-0.503C-0.388,-0.6 -0.399,-0.694 -0.417,-0.772ZM-0.981,-0.249C-1.029,-0.293 -1.061,-0.34 -1.078,-0.386C-1.065,-0.438 -1.039,-0.49 -1.001,-0.54C-0.966,-0.588 -0.921,-0.631 -0.87,-0.667C-0.855,-0.641 -0.834,-0.615 -0.808,-0.59C-0.783,-0.567 -0.754,-0.545 -0.721,-0.527C-0.73,-0.51 -0.739,-0.493 -0.748,-0.475C-0.798,-0.373 -0.838,-0.263 -0.862,-0.163C-0.907,-0.189 -0.947,-0.217 -0.981,-0.249ZM-0.616,-0.072C-0.685,-0.087 -0.751,-0.109 -0.811,-0.137C-0.791,-0.225 -0.755,-0.332 -0.697,-0.451C-0.689,-0.468 -0.68,-0.485 -0.671,-0.501C-0.631,-0.483 -0.587,-0.469 -0.541,-0.459C-0.506,-0.451 -0.471,-0.447 -0.436,-0.446C-0.436,-0.425 -0.435,-0.403 -0.435,-0.381C-0.435,-0.248 -0.446,-0.138 -0.461,-0.052C-0.512,-0.054 -0.564,-0.061 -0.616,-0.072ZM-0.379,-0.381C-0.379,-0.403 -0.379,-0.425 -0.38,-0.447C-0.31,-0.451 -0.245,-0.47 -0.192,-0.5C-0.143,-0.403 -0.117,-0.3 -0.117,-0.203C-0.117,-0.175 -0.119,-0.149 -0.124,-0.123C-0.149,-0.108 -0.178,-0.095 -0.211,-0.084C-0.269,-0.064 -0.335,-0.053 -0.404,-0.052C-0.387,-0.152 -0.379,-0.268 -0.379,-0.381ZM-1.079,-0.229C-1.084,-0.248 -1.087,-0.266 -1.088,-0.285C-1.069,-0.259 -1.046,-0.233 -1.019,-0.207C-0.978,-0.169 -0.929,-0.135 -0.874,-0.106C-0.886,-0.044 -0.889,0.013 -0.882,0.058C-0.975,-0.013 -1.046,-0.113 -1.079,-0.229ZM-0.788,0.115C-0.79,0.114 -0.792,0.112 -0.794,0.112C-0.825,0.096 -0.838,0.027 -0.822,-0.08C-0.762,-0.053 -0.696,-0.032 -0.627,-0.017C-0.575,-0.006 -0.523,0.001 -0.473,0.004C-0.497,0.112 -0.529,0.169 -0.551,0.169C-0.552,0.169 -0.553,0.169 -0.555,0.169C-0.638,0.169 -0.718,0.149 -0.788,0.115ZM-0.414,0.005C-0.335,0.004 -0.26,-0.008 -0.193,-0.03C-0.176,-0.036 -0.16,-0.042 -0.145,-0.049C-0.163,-0.004 -0.191,0.034 -0.226,0.062C-0.296,0.114 -0.379,0.15 -0.469,0.163C-0.447,0.124 -0.429,0.069 -0.414,0.005Z" style="fill:url(#_Radial1);fill-rule:nonzero;"/>
    </g>
    <g transform="matrix(4.16667,0,0,4.16667,385.745,27.035)">
        <path d="M0,24.535C-1.5,25.053 -3.734,25.568 -5.778,25.568C-12.751,25.568 -18.354,21.071 -18.354,11.898C-18.354,3.278 -12.514,-1.033 -5.778,-1.033C-3.549,-1.033 -2.228,-0.701 -0.063,-0.223L-0.063,6.556C-1.38,6.041 -2.736,5.596 -4.093,5.596C-7.52,5.596 -10.109,7.844 -10.109,12.049C-10.109,16.466 -7.703,18.716 -4.364,18.716C-2.887,18.716 -1.478,18.343 0,17.719L0,24.535Z" style="fill:rgb(0,47,84);fill-rule:nonzero;"/>
    </g>
    <g transform="matrix(4.16667,0,0,4.16667,420.458,20.2487)">
        <path d="M0,29.586C-0.194,29.586 -0.351,29.426 -0.351,29.234L-0.351,0.351C-0.351,0.157 -0.194,0 0,0C0.198,0 0.354,0.157 0.354,0.351L0.354,29.234C0.354,29.426 0.198,29.586 0,29.586" style="fill:rgb(0,47,84);fill-rule:nonzero;"/>
    </g>
    <g transform="matrix(4.16667,0,0,4.16667,473.898,142.88)">
        <path d="M0,-5.139L1.242,-5.139L-0.234,0.006L-1.471,0.006L-2.368,-3.224L-3.278,0.006L-4.512,0.006L-5.992,-5.139L-4.719,-5.139L-3.853,-1.388L-2.817,-5.139L-1.898,-5.139L-0.898,-1.388L0,-5.139ZM3.702,-0.912C4.134,-0.912 4.865,-1.128 4.865,-2.561C4.865,-3.996 4.134,-4.212 3.702,-4.212C2.944,-4.212 2.533,-3.624 2.533,-2.561C2.533,-1.498 2.944,-0.912 3.702,-0.912M3.702,-5.183C4.81,-5.183 6,-4.493 6,-2.561C6,-0.638 4.81,0.044 3.702,0.044C2.586,0.044 1.399,-0.638 1.399,-2.561C1.399,-4.493 2.586,-5.183 3.702,-5.183M7.714,-2.739L8.329,-2.739C8.937,-2.739 9.315,-3.02 9.315,-3.475C9.315,-3.956 8.987,-4.234 8.413,-4.234L7.714,-4.234L7.714,-2.739ZM9.982,-1.555C10.167,-1.188 10.329,-0.869 10.68,-0.869L10.944,-0.869L10.944,-0.025L10.908,-0.014C10.9,-0.014 10.71,0.037 10.377,0.037C9.512,0.037 9.248,-0.555 9.009,-1.081C8.815,-1.511 8.656,-1.884 8.199,-1.884L7.714,-1.884L7.714,0.006L6.624,0.006L6.624,-5.139L8.442,-5.139C9.782,-5.139 10.401,-4.617 10.401,-3.504C10.401,-2.818 9.98,-2.389 9.573,-2.205C9.755,-2.033 9.875,-1.789 9.982,-1.555M12.561,-5.139L11.46,-5.139L11.46,0.006L14.784,0.006L14.784,-0.905L12.561,-0.905L12.561,-5.139ZM16.394,-0.905L17.029,-0.905C17.816,-0.905 18.29,-1.499 18.29,-2.495C18.29,-3.65 17.789,-4.234 16.805,-4.234L16.394,-4.234L16.394,-0.905ZM16.82,-5.139C18.423,-5.139 19.379,-4.146 19.379,-2.483C19.379,-0.902 18.522,0.006 17.038,0.006L15.291,0.006L15.291,-5.139L16.82,-5.139ZM22.432,-0.905L23.288,-0.905C23.846,-0.905 24.106,-1.119 24.106,-1.57C24.106,-2.123 23.65,-2.238 23.262,-2.238L22.432,-2.238L22.432,-0.905ZM23.174,-3.038C23.631,-3.038 23.847,-3.23 23.847,-3.643C23.847,-4.031 23.571,-4.234 23.043,-4.234L22.432,-4.234L22.432,-3.038L23.174,-3.038ZM24.4,-2.71C24.792,-2.596 25.31,-2.231 25.31,-1.458C25.31,-0.529 24.654,0.006 23.505,0.006L21.336,0.006L21.336,-5.139L23.289,-5.139C24.407,-5.139 24.972,-4.678 24.972,-3.757C24.972,-3.049 24.649,-2.794 24.4,-2.71M27.842,-3.737L27.293,-2.117L28.412,-2.117L27.842,-3.737ZM28.403,-5.107L30.283,0.006L29.139,0.006L28.702,-1.258L26.987,-1.258L26.563,0.006L25.416,0.006L27.305,-5.139L28.387,-5.139L28.403,-5.107ZM33.477,-1.965L31.684,-5.139L30.57,-5.139L30.57,0.006L31.668,0.006L31.668,-3.065L33.461,0.006L34.577,0.006L34.577,-5.139L33.477,-5.139L33.477,-1.965ZM39.672,-5.139L38.371,-5.139L36.672,-2.825L36.672,-5.139L35.558,-5.139L35.558,0.006L36.672,0.006L36.672,-2.364L38.417,0.006L39.732,0.006L37.743,-2.591L39.672,-5.139ZM42.957,-1.877L44.083,-1.877L44.083,-1.819C44.083,-1.483 43.971,-0.926 43.18,-0.926C42.432,-0.926 41.995,-1.537 41.995,-2.561C41.995,-3.612 42.418,-4.212 43.155,-4.212C44.041,-4.212 44.074,-3.317 44.074,-3.281L44.074,-3.224L45.093,-3.382L45.093,-3.428C45.093,-3.799 44.766,-5.183 43.141,-5.183C41.694,-5.183 40.859,-4.227 40.859,-2.561C40.859,-0.926 41.721,0.044 43.155,0.044C44.608,0.044 45.118,-0.961 45.118,-1.827L45.118,-2.719L42.957,-2.719L42.957,-1.877ZM46.969,-2.739L47.578,-2.739C48.188,-2.739 48.561,-3.02 48.561,-3.475C48.561,-3.956 48.234,-4.234 47.656,-4.234L46.969,-4.234L46.969,-2.739ZM49.237,-1.555C49.415,-1.188 49.574,-0.869 49.938,-0.869L50.193,-0.869L50.193,-0.025L50.157,-0.014C50.149,-0.014 49.956,0.037 49.62,0.037C48.76,0.037 48.496,-0.555 48.263,-1.081C48.066,-1.511 47.902,-1.884 47.45,-1.884L46.969,-1.884L46.969,0.006L45.869,0.006L45.869,-5.139L47.699,-5.139C49.024,-5.139 49.648,-4.617 49.648,-3.504C49.648,-2.818 49.237,-2.389 48.817,-2.205C49.005,-2.033 49.117,-1.789 49.237,-1.555M52.671,-0.912C53.106,-0.912 53.841,-1.128 53.841,-2.561C53.841,-3.996 53.106,-4.212 52.671,-4.212C51.917,-4.212 51.496,-3.624 51.496,-2.561C51.496,-1.498 51.917,-0.912 52.671,-0.912M52.671,-5.183C53.78,-5.183 54.966,-4.493 54.966,-2.561C54.966,-0.638 53.78,0.044 52.671,0.044C51.559,0.044 50.364,-0.638 50.364,-2.561C50.364,-4.493 51.559,-5.183 52.671,-5.183M58.546,-2.058C58.546,-1.305 58.256,-0.933 57.658,-0.933C57.058,-0.933 56.749,-1.314 56.749,-2.058L56.749,-5.139L55.66,-5.139L55.66,-2.133C55.652,-1.392 55.839,-0.832 56.202,-0.467C56.543,-0.129 57.032,0.044 57.658,0.044C58.564,0.044 59.638,-0.332 59.638,-2.133L59.638,-5.139L58.546,-5.139L58.546,-2.058ZM61.657,-2.539L62.313,-2.539C62.945,-2.539 63.268,-2.823 63.268,-3.368C63.268,-3.923 62.918,-4.234 62.274,-4.234L61.657,-4.234L61.657,-2.539ZM62.358,-5.139C63.653,-5.139 64.372,-4.513 64.372,-3.368C64.372,-2.29 63.662,-1.648 62.485,-1.648L61.657,-1.648L61.657,0.006L60.558,0.006L60.558,-5.139L62.358,-5.139Z" style="fill:rgb(0,47,84);fill-rule:nonzero;"/>
    </g>
    <g transform="matrix(4.16667,0,0,4.16667,34.4146,231.864)">
        <path d="M0,-9.583L-0.15,-9.664C-0.263,-9.569 -0.375,-9.43 -0.536,-9.43C-0.946,-9.43 -1.172,-9.977 -3.037,-9.977C-5.707,-9.977 -7.95,-7.938 -7.95,-5.409C-7.95,-3.041 -6.191,-1.491 -3.798,-1.491C-3.133,-1.491 -2.77,-1.56 -2.194,-1.758C-1.897,-1.86 -1.522,-2.038 -1.347,-2.038C-1.208,-2.038 -1.087,-1.992 -1.01,-1.944L-0.512,-3.925L-0.787,-3.983C-1.386,-2.68 -2.194,-1.86 -3.784,-1.86C-5.719,-1.86 -6.655,-3.379 -6.655,-5.409C-6.655,-7.331 -5.335,-9.606 -2.786,-9.606C-2.098,-9.606 -1.546,-9.421 -1.149,-9.046C-0.679,-8.602 -0.612,-8.112 -0.661,-7.601L-0.411,-7.532L0,-9.583ZM0.413,-5.233C0.612,-5.465 1.126,-6.014 1.461,-6.014C1.624,-6.014 1.695,-5.839 1.695,-5.709C1.695,-5.535 1.614,-5.211 1.548,-5.024L0.567,-1.806C0.55,-1.771 0.54,-1.738 0.54,-1.703C0.54,-1.596 0.774,-1.491 0.939,-1.491C1.163,-1.491 1.363,-1.503 1.386,-1.587L1.614,-2.33C2.018,-3.52 2.908,-5.78 3.772,-5.78C3.919,-5.78 4.082,-5.735 4.231,-5.735C4.616,-5.735 4.753,-6.33 4.753,-6.596C4.753,-6.854 4.632,-6.993 4.366,-6.993C3.584,-6.993 2.409,-4.943 2.075,-4.347L2.043,-4.347L2.522,-5.945C2.594,-6.199 2.648,-6.423 2.648,-6.552C2.648,-6.865 2.449,-6.993 2.136,-6.993C1.527,-6.993 0.567,-5.865 0.25,-5.433L0.413,-5.233ZM9.336,-3.203C8.625,-2.563 7.891,-2.119 7.164,-2.119C6.579,-2.119 6.145,-2.433 6.145,-3.018C6.145,-3.322 6.168,-3.614 6.242,-3.918C7.576,-4.032 9.96,-4.582 9.96,-6.163C9.96,-6.807 9.298,-6.993 8.739,-6.993C6.927,-6.993 5.148,-4.931 5.148,-3.063C5.148,-2.283 5.531,-1.491 6.684,-1.491C7.776,-1.491 8.688,-2.154 9.511,-3.004L9.336,-3.203ZM6.304,-4.218C6.5,-4.989 7.487,-6.62 8.448,-6.62C8.778,-6.62 8.963,-6.423 8.963,-6.118C8.963,-4.848 7.454,-4.29 6.304,-4.218M11.259,-3.156C11.259,-4.312 12.682,-6.446 14.03,-6.446C14.35,-6.446 14.653,-6.143 14.653,-5.853C14.653,-4.815 13.108,-2.354 11.895,-2.354C11.409,-2.354 11.259,-2.761 11.259,-3.156M15.16,-6.608C14.979,-6.83 14.688,-6.993 14.377,-6.993C12.77,-6.993 10.333,-4.312 10.333,-2.458C10.333,-2.039 10.525,-1.491 11.282,-1.491C12.283,-1.491 13.437,-2.832 14.083,-3.726L14.092,-3.692L13.744,-2.666C13.626,-2.343 13.527,-2.014 13.527,-1.816C13.527,-1.585 13.77,-1.491 13.956,-1.491C14.743,-1.491 15.464,-2.528 15.952,-3.004L15.752,-3.156C15.515,-2.961 15.188,-2.468 14.828,-2.468C14.716,-2.468 14.678,-2.552 14.678,-2.633C14.678,-2.748 14.688,-2.819 14.73,-2.924L15.968,-7.063C15.976,-7.109 15.99,-7.134 15.99,-7.156C15.99,-7.19 15.952,-7.216 15.876,-7.216L15.617,-7.216C15.464,-7.216 15.393,-7.063 15.337,-6.983L15.16,-6.608ZM18.373,-6.818L17.164,-6.818L17.017,-6.341L18.234,-6.341L17.124,-2.843C17.065,-2.643 16.965,-2.33 16.965,-2.094C16.965,-1.793 17.15,-1.491 17.512,-1.491C18.423,-1.491 19.446,-2.586 20.01,-3.165L19.834,-3.367C19.511,-3.063 18.773,-2.354 18.283,-2.354C18.095,-2.354 18.037,-2.468 18.037,-2.609C18.037,-2.725 18.071,-2.865 18.111,-2.97L19.194,-6.341L20.518,-6.341L20.67,-6.818L19.333,-6.818L19.845,-8.287L18.847,-8.287L18.373,-6.818ZM21.235,-5.313C21.381,-5.5 21.858,-6.061 22.121,-6.061C22.215,-6.061 22.271,-6.001 22.271,-5.919C22.271,-5.815 22.215,-5.653 22.156,-5.487L21.082,-2.528C21.006,-2.294 20.946,-2.096 20.946,-1.958C20.946,-1.688 21.059,-1.491 21.423,-1.491C22.132,-1.491 23.021,-2.543 23.405,-3.028L23.201,-3.183C23.084,-3.054 22.429,-2.424 22.258,-2.424C22.132,-2.424 22.096,-2.482 22.096,-2.602C22.096,-2.703 22.141,-2.87 22.215,-3.087L23.241,-6.05C23.303,-6.224 23.419,-6.524 23.419,-6.701C23.419,-6.875 23.331,-6.993 23.032,-6.993C22.316,-6.993 21.423,-5.99 21.059,-5.478L21.235,-5.313ZM23.303,-9.71C22.994,-9.71 22.73,-9.442 22.73,-9.162C22.73,-8.897 23.007,-8.635 23.303,-8.635C23.602,-8.635 23.877,-8.897 23.877,-9.162C23.877,-9.442 23.615,-9.71 23.303,-9.71M24.416,-5.313L24.752,-5.662C24.981,-5.872 25.217,-6.062 25.473,-6.062C25.625,-6.062 25.676,-5.968 25.676,-5.853C25.676,-5.709 25.604,-5.487 25.522,-5.266L24.302,-1.816C24.367,-1.738 24.579,-1.665 24.699,-1.665C24.852,-1.665 25.127,-1.703 25.165,-1.795L25.415,-2.463C25.753,-3.351 26.284,-4.156 26.977,-4.844C27.388,-5.279 28.096,-6.062 28.795,-6.062C28.937,-6.062 29.082,-5.99 29.082,-5.839C29.082,-5.675 28.959,-5.362 28.922,-5.257L27.95,-2.773C27.806,-2.436 27.773,-2.238 27.773,-2.047C27.773,-1.842 27.921,-1.665 28.252,-1.665C28.937,-1.665 29.548,-2.18 29.984,-2.68L30.429,-3.191L30.218,-3.345C30.034,-3.074 29.48,-2.528 29.146,-2.528C28.972,-2.528 28.922,-2.633 28.922,-2.773C28.922,-2.915 28.994,-3.1 29.107,-3.379L30.105,-5.945C30.169,-6.107 30.234,-6.33 30.234,-6.516C30.234,-6.772 30.12,-6.993 29.732,-6.993C28.508,-7.004 26.661,-5.08 26.064,-4.277L26.037,-4.277L26.688,-6.036C26.739,-6.18 26.825,-6.401 26.825,-6.596C26.825,-6.818 26.698,-6.993 26.403,-6.993C25.576,-6.993 24.699,-6.074 24.224,-5.526L24.416,-5.313ZM32.925,-2.773C32.805,-2.833 32.688,-2.878 32.688,-3.029C32.688,-3.147 32.967,-3.404 33.079,-3.436C33.267,-3.413 33.465,-3.404 33.651,-3.404C34.876,-3.404 36.171,-4.18 36.171,-5.409C36.171,-5.769 36.051,-6.107 35.77,-6.385C36.245,-6.341 36.496,-6.084 36.754,-6.084C36.96,-6.084 37.057,-6.307 37.057,-6.516C37.057,-6.676 37.025,-6.854 36.86,-6.854C36.721,-6.854 36.593,-6.783 36.471,-6.712C36.348,-6.644 36.211,-6.574 36.06,-6.574C35.986,-6.574 35.887,-6.608 35.802,-6.63C35.169,-6.783 34.887,-6.993 34.151,-6.993C32.978,-6.993 31.721,-6.131 31.721,-5.037C31.721,-4.29 32.109,-3.925 32.778,-3.58C32.438,-3.368 31.766,-3.018 31.766,-2.574C31.766,-2.248 32.23,-2.077 32.467,-1.936C31.766,-1.678 30.508,-1.197 30.508,-0.349C30.508,0.784 32.192,0.99 33.079,0.99C34.09,0.99 35.86,0.515 35.86,-0.66C35.86,-1.34 35.464,-1.538 34.887,-1.83L32.925,-2.773ZM34.423,-1.025C34.745,-0.871 35.039,-0.639 35.039,-0.324C35.039,0.434 33.827,0.621 33.229,0.621C32.467,0.621 31.329,0.342 31.329,-0.534C31.329,-1.187 32.587,-1.701 32.838,-1.786L34.423,-1.025ZM35.179,-5.698C35.179,-4.905 34.625,-3.706 33.629,-3.706C32.945,-3.706 32.717,-4.18 32.717,-4.741C32.717,-5.514 33.278,-6.738 34.292,-6.693C34.939,-6.693 35.179,-6.19 35.179,-5.698M40.495,-1.665C41.056,-1.678 41.629,-1.688 42.19,-1.688C42.549,-1.688 42.917,-1.665 43.277,-1.665L43.341,-1.968L42.838,-1.968C42.43,-1.968 42.338,-2.154 42.338,-2.424C42.338,-2.528 42.38,-2.643 42.407,-2.761L43.766,-8.172L43.79,-8.172L45.437,-1.665L45.86,-1.665L49.655,-8.579L49.681,-8.579L49.223,-2.786C49.157,-2.062 48.883,-1.968 48.158,-1.968L48.01,-1.968L47.945,-1.665C48.544,-1.678 49.145,-1.688 49.741,-1.688C50.278,-1.688 50.827,-1.665 51.368,-1.665L51.422,-1.968L51.226,-1.968C50.552,-1.968 50.325,-2.178 50.363,-2.806L50.765,-8.708C50.803,-9.244 51.005,-9.499 51.725,-9.499L51.864,-9.499L51.927,-9.802C51.516,-9.802 51.079,-9.781 50.65,-9.781C50.35,-9.781 50.055,-9.778 49.755,-9.802L46.162,-3.228L44.463,-9.802C44.1,-9.802 43.739,-9.781 43.378,-9.781C42.982,-9.781 42.592,-9.778 42.202,-9.802L42.145,-9.499L42.301,-9.499C42.848,-9.488 43.229,-9.421 43.438,-8.869L41.891,-3.086C41.618,-2.073 41.388,-1.968 40.691,-1.968L40.555,-1.968L40.495,-1.665ZM53.125,-3.156C53.125,-4.312 54.544,-6.446 55.893,-6.446C56.219,-6.446 56.517,-6.143 56.517,-5.853C56.517,-4.815 54.971,-2.354 53.759,-2.354C53.276,-2.354 53.125,-2.761 53.125,-3.156M57.031,-6.608C56.842,-6.83 56.558,-6.993 56.246,-6.993C54.634,-6.993 52.202,-4.312 52.202,-2.458C52.202,-2.039 52.387,-1.491 53.148,-1.491C54.148,-1.491 55.31,-2.832 55.945,-3.726L55.957,-3.692L55.607,-2.666C55.496,-2.343 55.397,-2.014 55.397,-1.816C55.397,-1.585 55.63,-1.491 55.816,-1.491C56.606,-1.491 57.329,-2.528 57.814,-3.004L57.617,-3.156C57.383,-2.961 57.056,-2.468 56.693,-2.468C56.581,-2.468 56.545,-2.552 56.545,-2.633C56.545,-2.748 56.558,-2.819 56.594,-2.924L57.83,-7.063C57.846,-7.109 57.855,-7.134 57.855,-7.156C57.855,-7.19 57.814,-7.216 57.742,-7.216L57.48,-7.216C57.329,-7.216 57.25,-7.063 57.207,-6.983L57.031,-6.608ZM58.731,-5.233C58.933,-5.465 59.445,-6.014 59.778,-6.014C59.942,-6.014 60.016,-5.839 60.016,-5.709C60.016,-5.535 59.924,-5.211 59.864,-5.024L58.878,-1.806C58.867,-1.771 58.856,-1.738 58.856,-1.703C58.856,-1.596 59.093,-1.491 59.254,-1.491C59.482,-1.491 59.678,-1.503 59.704,-1.587L59.924,-2.33C60.339,-3.52 61.225,-5.78 62.09,-5.78C62.236,-5.78 62.402,-5.735 62.548,-5.735C62.933,-5.735 63.071,-6.33 63.071,-6.596C63.071,-6.854 62.948,-6.993 62.687,-6.993C61.9,-6.993 60.727,-4.943 60.391,-4.347L60.366,-4.347L60.838,-5.945C60.916,-6.199 60.96,-6.423 60.96,-6.552C60.96,-6.865 60.764,-6.993 60.45,-6.993C59.842,-6.993 58.878,-5.865 58.566,-5.433L58.731,-5.233ZM63.375,-1.748C63.337,-1.619 63.545,-1.503 63.788,-1.503C64.047,-1.503 64.199,-1.56 64.249,-1.737L64.859,-3.836C65.157,-3.776 65.35,-3.565 65.51,-3.345L66.395,-2.247C66.781,-1.781 67.244,-1.491 67.878,-1.491C68.289,-1.491 68.714,-1.585 69.089,-1.793L69.089,-2.094C68.99,-2.038 68.842,-1.968 68.714,-1.968C68.289,-1.968 68.102,-2.026 67.792,-2.275C67.206,-2.739 66.621,-3.684 66.041,-3.905L66.041,-3.925C67.144,-4.17 68.842,-4.964 68.842,-6.131C68.842,-6.676 68.464,-6.993 67.902,-6.993C66.908,-6.993 65.736,-5.956 65.281,-5.362L65.257,-5.362L66.705,-10.525L66.597,-10.573C66.21,-10.452 65.295,-10.257 64.884,-10.186L64.85,-10.002L65.453,-9.651L63.375,-1.748ZM67.917,-5.746C67.917,-4.81 66.317,-4.16 65.424,-4.087C65.249,-4.081 65.071,-4.065 64.894,-4.065C65.133,-4.863 66.195,-6.297 67.254,-6.297C67.717,-6.297 67.917,-6.061 67.917,-5.746M74.232,-3.203C73.526,-2.563 72.781,-2.119 72.064,-2.119C71.474,-2.119 71.034,-2.433 71.034,-3.018C71.034,-3.322 71.06,-3.614 71.137,-3.918C72.473,-4.032 74.856,-4.582 74.856,-6.163C74.856,-6.807 74.193,-6.993 73.637,-6.993C71.825,-6.993 70.039,-4.931 70.039,-3.063C70.039,-2.283 70.427,-1.491 71.576,-1.491C72.674,-1.491 73.583,-2.154 74.407,-3.004L74.232,-3.203ZM71.198,-4.218C71.4,-4.989 72.386,-6.62 73.347,-6.62C73.673,-6.62 73.861,-6.423 73.861,-6.118C73.861,-4.848 72.343,-4.29 71.198,-4.218M77.087,-6.818L75.878,-6.818L75.732,-6.341L76.954,-6.341L75.843,-2.843C75.781,-2.643 75.684,-2.33 75.684,-2.094C75.684,-1.793 75.868,-1.491 76.228,-1.491C77.139,-1.491 78.163,-2.586 78.725,-3.165L78.551,-3.367C78.223,-3.063 77.493,-2.354 77.002,-2.354C76.818,-2.354 76.754,-2.468 76.754,-2.609C76.754,-2.725 76.79,-2.865 76.83,-2.97L77.913,-6.341L79.24,-6.341L79.386,-6.818L78.054,-6.818L78.562,-8.287L77.565,-8.287L77.087,-6.818ZM79.627,-3.122C79.492,-2.89 79.337,-2.666 79.337,-2.399C79.337,-1.651 80.326,-1.491 80.922,-1.491C81.497,-1.491 81.998,-1.643 82.408,-2.026C82.737,-2.321 83.217,-2.819 83.217,-3.277C83.217,-4.488 81.012,-4.744 81.012,-5.698C81.012,-6.155 81.521,-6.364 81.943,-6.364C82.359,-6.364 82.856,-6.163 82.967,-5.945C83.02,-5.853 83.045,-5.769 83.143,-5.769L83.294,-5.769C83.442,-5.769 83.558,-6.155 83.558,-6.297C83.558,-6.865 82.982,-6.993 82.473,-6.993C82.074,-6.993 81.887,-6.936 81.547,-6.738C81.058,-6.446 80.189,-5.923 80.189,-5.318C80.189,-5.14 80.204,-4.942 80.294,-4.779C80.662,-4.022 82.483,-3.52 82.483,-2.712C82.483,-2.275 81.724,-2.187 81.371,-2.187C80.721,-2.187 79.907,-2.458 79.793,-3.122L79.627,-3.122ZM83.955,-0.034C85.115,0.002 86.363,-0.744 86.363,-1.922C86.363,-2.468 86.064,-3.028 85.418,-3.028C85.069,-3.028 84.605,-2.899 84.605,-2.354C84.605,-2.201 84.645,-2.073 84.758,-1.956C85.005,-1.71 85.181,-1.781 85.454,-1.651C85.529,-1.604 85.542,-1.513 85.542,-1.443C85.542,-0.581 84.62,-0.358 83.871,-0.269L83.955,-0.034ZM99.356,-9.583L99.209,-9.664C99.096,-9.569 98.982,-9.43 98.826,-9.43C98.41,-9.43 98.189,-9.977 96.325,-9.977C93.653,-9.977 91.408,-7.938 91.408,-5.409C91.408,-3.041 93.167,-1.491 95.57,-1.491C96.229,-1.491 96.59,-1.56 97.165,-1.758C97.462,-1.86 97.84,-2.038 98.014,-2.038C98.147,-2.038 98.273,-1.992 98.35,-1.944L98.847,-3.925L98.579,-3.983C97.971,-2.68 97.165,-1.86 95.58,-1.86C93.644,-1.86 92.707,-3.379 92.707,-5.409C92.707,-7.331 94.031,-9.606 96.577,-9.606C97.265,-9.606 97.811,-9.421 98.211,-9.046C98.685,-8.602 98.748,-8.112 98.699,-7.601L98.948,-7.532L99.356,-9.583ZM99.771,-5.233C99.972,-5.465 100.483,-6.014 100.822,-6.014C100.984,-6.014 101.057,-5.839 101.057,-5.709C101.057,-5.535 100.973,-5.211 100.909,-5.024L99.923,-1.806C99.912,-1.771 99.895,-1.738 99.895,-1.703C99.895,-1.596 100.137,-1.491 100.296,-1.491C100.523,-1.491 100.718,-1.503 100.748,-1.587L100.973,-2.33C101.376,-3.52 102.267,-5.78 103.129,-5.78C103.277,-5.78 103.439,-5.735 103.589,-5.735C103.977,-5.735 104.111,-6.33 104.111,-6.596C104.111,-6.854 103.988,-6.993 103.729,-6.993C102.94,-6.993 101.766,-4.943 101.431,-4.347L101.405,-4.347L101.883,-5.945C101.953,-6.199 102.009,-6.423 102.009,-6.552C102.009,-6.865 101.81,-6.993 101.494,-6.993C100.883,-6.993 99.923,-5.865 99.612,-5.433L99.771,-5.233ZM108.699,-3.203C107.984,-2.563 107.25,-2.119 106.523,-2.119C105.936,-2.119 105.501,-2.433 105.501,-3.018C105.501,-3.322 105.525,-3.614 105.602,-3.918C106.936,-4.032 109.32,-4.582 109.32,-6.163C109.32,-6.807 108.659,-6.993 108.1,-6.993C106.287,-6.993 104.503,-4.931 104.503,-3.063C104.503,-2.283 104.889,-1.491 106.037,-1.491C107.136,-1.491 108.047,-2.154 108.874,-3.004L108.699,-3.203ZM105.664,-4.218C105.859,-4.989 106.844,-6.62 107.805,-6.62C108.13,-6.62 108.322,-6.423 108.322,-6.118C108.322,-4.848 106.813,-4.29 105.664,-4.218M110.617,-3.156C110.617,-4.312 112.042,-6.446 113.391,-6.446C113.716,-6.446 114.011,-6.143 114.011,-5.853C114.011,-4.815 112.463,-2.354 111.256,-2.354C110.771,-2.354 110.617,-2.761 110.617,-3.156M114.526,-6.608C114.334,-6.83 114.05,-6.993 113.742,-6.993C112.127,-6.993 109.692,-4.312 109.692,-2.458C109.692,-2.039 109.878,-1.491 110.638,-1.491C111.642,-1.491 112.802,-2.832 113.436,-3.726L113.448,-3.692L113.102,-2.666C112.988,-2.343 112.89,-2.014 112.89,-1.816C112.89,-1.585 113.125,-1.491 113.318,-1.491C114.098,-1.491 114.824,-2.528 115.31,-3.004L115.116,-3.156C114.877,-2.961 114.548,-2.468 114.185,-2.468C114.078,-2.468 114.041,-2.552 114.041,-2.633C114.041,-2.748 114.05,-2.819 114.088,-2.924L115.321,-7.063C115.339,-7.109 115.349,-7.134 115.349,-7.156C115.349,-7.19 115.31,-7.216 115.237,-7.216L114.976,-7.216C114.824,-7.216 114.747,-7.063 114.698,-6.983L114.526,-6.608ZM117.729,-6.818L116.527,-6.818L116.373,-6.341L117.595,-6.341L116.482,-2.843C116.426,-2.643 116.321,-2.33 116.321,-2.094C116.321,-1.793 116.51,-1.491 116.87,-1.491C117.786,-1.491 118.807,-2.586 119.371,-3.165L119.193,-3.367C118.867,-3.063 118.129,-2.354 117.645,-2.354C117.458,-2.354 117.396,-2.468 117.396,-2.609C117.396,-2.725 117.435,-2.865 117.474,-2.97L118.561,-6.341L119.881,-6.341L120.031,-6.818L118.697,-6.818L119.206,-8.287L118.205,-8.287L117.729,-6.818ZM120.591,-5.313C120.742,-5.5 121.215,-6.061 121.481,-6.061C121.582,-6.061 121.623,-6.001 121.623,-5.919C121.623,-5.815 121.582,-5.653 121.517,-5.487L120.439,-2.528C120.365,-2.294 120.309,-2.096 120.309,-1.958C120.309,-1.688 120.422,-1.491 120.781,-1.491C121.493,-1.491 122.376,-2.543 122.765,-3.028L122.566,-3.183C122.441,-3.054 121.789,-2.424 121.615,-2.424C121.493,-2.424 121.454,-2.482 121.454,-2.602C121.454,-2.703 121.505,-2.87 121.582,-3.087L122.602,-6.05C122.666,-6.224 122.773,-6.524 122.773,-6.701C122.773,-6.875 122.691,-6.993 122.389,-6.993C121.678,-6.993 120.781,-5.99 120.422,-5.478L120.591,-5.313ZM122.666,-9.71C122.353,-9.71 122.095,-9.442 122.095,-9.162C122.095,-8.897 122.366,-8.635 122.666,-8.635C122.962,-8.635 123.239,-8.897 123.239,-9.162C123.239,-9.442 122.974,-9.71 122.666,-9.71M123.775,-5.313L124.113,-5.662C124.337,-5.872 124.58,-6.062 124.837,-6.062C124.988,-6.062 125.035,-5.968 125.035,-5.853C125.035,-5.709 124.965,-5.487 124.886,-5.266L123.666,-1.816C123.724,-1.738 123.938,-1.665 124.063,-1.665C124.213,-1.665 124.492,-1.703 124.522,-1.795L124.775,-2.463C125.114,-3.351 125.648,-4.156 126.333,-4.844C126.744,-5.279 127.458,-6.062 128.155,-6.062C128.296,-6.062 128.444,-5.99 128.444,-5.839C128.444,-5.675 128.316,-5.362 128.282,-5.257L127.308,-2.773C127.172,-2.436 127.13,-2.238 127.13,-2.047C127.13,-1.842 127.28,-1.665 127.608,-1.665C128.296,-1.665 128.904,-2.18 129.339,-2.68L129.792,-3.191L129.578,-3.345C129.394,-3.074 128.842,-2.528 128.505,-2.528C128.331,-2.528 128.282,-2.633 128.282,-2.773C128.282,-2.915 128.356,-3.1 128.465,-3.379L129.47,-5.945C129.527,-6.107 129.591,-6.33 129.591,-6.516C129.591,-6.772 129.478,-6.993 129.091,-6.993C127.868,-7.004 126.02,-5.08 125.423,-4.277L125.394,-4.277L126.051,-6.036C126.096,-6.18 126.183,-6.401 126.183,-6.596C126.183,-6.818 126.061,-6.993 125.761,-6.993C124.933,-6.993 124.063,-6.074 123.591,-5.526L123.775,-5.313ZM132.291,-2.773C132.162,-2.833 132.051,-2.878 132.051,-3.029C132.051,-3.147 132.322,-3.404 132.44,-3.436C132.626,-3.413 132.827,-3.404 133.017,-3.404C134.237,-3.404 135.534,-4.18 135.534,-5.409C135.534,-5.769 135.407,-6.107 135.129,-6.385C135.61,-6.341 135.858,-6.084 136.122,-6.084C136.319,-6.084 136.419,-6.307 136.419,-6.516C136.419,-6.676 136.385,-6.854 136.222,-6.854C136.08,-6.854 135.959,-6.783 135.832,-6.712C135.705,-6.644 135.568,-6.574 135.42,-6.574C135.348,-6.574 135.243,-6.608 135.153,-6.63C134.522,-6.783 134.249,-6.993 133.516,-6.993C132.334,-6.993 131.076,-6.131 131.076,-5.037C131.076,-4.29 131.464,-3.925 132.138,-3.58C131.802,-3.368 131.13,-3.018 131.13,-2.574C131.13,-2.248 131.588,-2.077 131.824,-1.936C131.13,-1.678 129.867,-1.197 129.867,-0.349C129.867,0.784 131.55,0.99 132.44,0.99C133.45,0.99 135.223,0.515 135.223,-0.66C135.223,-1.34 134.825,-1.538 134.249,-1.83L132.291,-2.773ZM133.785,-1.025C134.112,-0.871 134.399,-0.639 134.399,-0.324C134.399,0.434 133.189,0.621 132.586,0.621C131.824,0.621 130.692,0.342 130.692,-0.534C130.692,-1.187 131.952,-1.701 132.199,-1.786L133.785,-1.025ZM134.538,-5.698C134.538,-4.905 133.988,-3.706 132.984,-3.706C132.302,-3.706 132.074,-4.18 132.074,-4.741C132.074,-5.514 132.637,-6.738 133.647,-6.693C134.298,-6.693 134.538,-6.19 134.538,-5.698M141.998,-5.092C141.998,-7.181 143.137,-9.606 145.719,-9.606C147.838,-9.606 148.767,-8.03 148.767,-6.282C148.767,-4.336 147.514,-1.86 145.055,-1.86C142.871,-1.86 141.998,-3.262 141.998,-5.092M140.778,-5.339C140.778,-2.961 142.496,-1.491 144.997,-1.491C147.894,-1.491 149.986,-3.647 149.986,-6.307C149.986,-8.511 147.958,-9.977 145.708,-9.977C142.97,-9.977 140.778,-7.915 140.778,-5.339M152.675,-6.574C152.161,-6.434 151.659,-6.271 151.174,-6.074L151.086,-5.619C151.559,-5.853 152.072,-6.014 152.575,-6.18L150.676,0.9L150.749,0.99C151.021,0.958 151.247,0.935 151.614,0.902C152.049,0.863 152.364,0.843 152.712,0.814L152.773,0.607L151.761,0.445L152.374,-1.83C152.647,-1.631 153.01,-1.491 153.37,-1.491C155.195,-1.491 156.979,-3.985 156.979,-5.548C156.979,-6.644 156.157,-6.993 155.091,-6.993C154.453,-6.993 153.987,-6.877 153.722,-6.783L154.106,-8.251L153.069,-7.974L152.675,-6.574ZM153.621,-6.446C153.855,-6.552 154.247,-6.62 154.691,-6.62C155.131,-6.62 155.905,-6.492 155.905,-5.535C155.905,-4.404 154.681,-1.793 153.383,-1.793C152.939,-1.793 152.695,-2.321 152.695,-2.573C152.695,-3.018 152.789,-3.251 152.834,-3.52L153.621,-6.446ZM159.548,-6.574C159.036,-6.434 158.541,-6.271 158.055,-6.074L157.966,-5.619C158.438,-5.853 158.953,-6.014 159.449,-6.18L157.552,0.9L157.63,0.99C157.899,0.958 158.13,0.935 158.491,0.902C158.923,0.863 159.242,0.843 159.593,0.814L159.65,0.607L158.643,0.445L159.254,-1.83C159.524,-1.631 159.886,-1.491 160.249,-1.491C162.066,-1.491 163.854,-3.985 163.854,-5.548C163.854,-6.644 163.032,-6.993 161.974,-6.993C161.337,-6.993 160.862,-6.877 160.601,-6.783L160.987,-8.251L159.948,-7.974L159.548,-6.574ZM160.501,-6.446C160.736,-6.552 161.121,-6.62 161.576,-6.62C162.008,-6.62 162.783,-6.492 162.783,-5.535C162.783,-4.404 161.566,-1.793 160.259,-1.793C159.811,-1.793 159.575,-2.321 159.575,-2.573C159.575,-3.018 159.663,-3.251 159.713,-3.52L160.501,-6.446ZM166.064,-3.436C166.064,-4.72 166.726,-6.693 168.4,-6.693C169.474,-6.693 169.812,-5.872 169.812,-5.045C169.812,-3.848 169.124,-1.793 167.517,-1.793C166.415,-1.793 166.064,-2.563 166.064,-3.436M165.068,-3.834C165.068,-2.424 166.024,-1.491 167.525,-1.491C169.31,-1.491 170.811,-2.982 170.811,-4.625C170.811,-5.968 169.859,-6.993 168.411,-6.993C166.598,-6.993 165.068,-5.514 165.068,-3.834M171.859,-5.233C172.057,-5.465 172.569,-6.014 172.905,-6.014C173.069,-6.014 173.145,-5.839 173.145,-5.709C173.145,-5.535 173.059,-5.211 172.991,-5.024L172.007,-1.806C171.992,-1.771 171.98,-1.738 171.98,-1.703C171.98,-1.596 172.22,-1.491 172.383,-1.491C172.606,-1.491 172.807,-1.503 172.83,-1.587L173.059,-2.33C173.468,-3.52 174.355,-5.78 175.212,-5.78C175.363,-5.78 175.523,-5.735 175.672,-5.735C176.059,-5.735 176.201,-6.33 176.201,-6.596C176.201,-6.854 176.076,-6.993 175.815,-6.993C175.027,-6.993 173.854,-4.943 173.52,-4.347L173.494,-4.347L173.966,-5.945C174.04,-6.199 174.09,-6.423 174.09,-6.552C174.09,-6.865 173.893,-6.993 173.578,-6.993C172.97,-6.993 172.007,-5.865 171.695,-5.433L171.859,-5.233ZM178.163,-6.818L176.953,-6.818L176.799,-6.341L178.022,-6.341L176.916,-2.843C176.853,-2.643 176.754,-2.33 176.754,-2.094C176.754,-1.793 176.94,-1.491 177.295,-1.491C178.208,-1.491 179.233,-2.586 179.791,-3.165L179.622,-3.367C179.295,-3.063 178.561,-2.354 178.075,-2.354C177.888,-2.354 177.822,-2.468 177.822,-2.609C177.822,-2.725 177.857,-2.865 177.897,-2.97L178.986,-6.341L180.307,-6.341L180.457,-6.818L179.118,-6.818L179.632,-8.287L178.632,-8.287L178.163,-6.818ZM186.536,-3.251C186.287,-3.063 185.773,-2.528 185.447,-2.528C185.312,-2.528 185.263,-2.602 185.263,-2.691C185.263,-2.739 185.272,-2.794 185.302,-2.854L186.661,-6.657C186.525,-6.772 186.311,-6.993 186.098,-6.993C185.848,-6.993 185.762,-6.841 185.67,-6.63C185.251,-5.594 182.892,-2.602 182.044,-2.602C181.931,-2.602 181.831,-2.633 181.831,-2.712C181.831,-2.773 181.845,-2.819 181.855,-2.877L182.981,-6.013C183.079,-6.26 183.143,-6.432 183.143,-6.618C183.143,-6.854 182.981,-6.993 182.733,-6.993C182.146,-6.993 181.481,-6.385 180.964,-5.909L180.546,-5.502L180.749,-5.303C180.987,-5.526 181.421,-6.062 181.778,-6.062C181.907,-6.062 181.947,-5.979 181.947,-5.888C181.947,-5.759 181.891,-5.619 181.891,-5.629L180.808,-2.621C180.734,-2.399 180.681,-2.212 180.681,-2.121C180.681,-1.876 180.932,-1.665 181.205,-1.665C182.426,-1.665 184.462,-4.265 185.079,-5.001L185.103,-5.001L184.352,-2.934C184.212,-2.563 184.111,-2.263 184.111,-2.077C184.111,-1.816 184.274,-1.665 184.578,-1.665C185.411,-1.665 186.2,-2.563 186.714,-3.086L186.536,-3.251ZM187.676,-5.313L188.009,-5.662C188.235,-5.872 188.47,-6.062 188.731,-6.062C188.885,-6.062 188.932,-5.968 188.932,-5.853C188.932,-5.709 188.856,-5.487 188.784,-5.266L187.559,-1.816C187.622,-1.738 187.832,-1.665 187.962,-1.665C188.108,-1.665 188.384,-1.703 188.423,-1.795L188.671,-2.463C189.008,-3.351 189.544,-4.156 190.229,-4.844C190.643,-5.279 191.356,-6.062 192.056,-6.062C192.191,-6.062 192.337,-5.99 192.337,-5.839C192.337,-5.675 192.217,-5.362 192.177,-5.257L191.206,-2.773C191.071,-2.436 191.03,-2.238 191.03,-2.047C191.03,-1.842 191.181,-1.665 191.5,-1.665C192.191,-1.665 192.804,-2.18 193.24,-2.68L193.687,-3.191L193.474,-3.345C193.289,-3.074 192.734,-2.528 192.402,-2.528C192.227,-2.528 192.177,-2.633 192.177,-2.773C192.177,-2.915 192.253,-3.1 192.363,-3.379L193.361,-5.945C193.424,-6.107 193.485,-6.33 193.485,-6.516C193.485,-6.772 193.379,-6.993 192.989,-6.993C191.768,-7.004 189.919,-5.08 189.316,-4.277L189.299,-4.277L189.945,-6.036C189.998,-6.18 190.081,-6.401 190.081,-6.596C190.081,-6.818 189.96,-6.993 189.656,-6.993C188.834,-6.993 187.962,-6.074 187.486,-5.526L187.676,-5.313ZM194.775,-5.313C194.922,-5.5 195.401,-6.061 195.661,-6.061C195.763,-6.061 195.811,-6.001 195.811,-5.919C195.811,-5.815 195.763,-5.653 195.697,-5.487L194.624,-2.528C194.546,-2.294 194.486,-2.096 194.486,-1.958C194.486,-1.688 194.605,-1.491 194.963,-1.491C195.67,-1.491 196.562,-2.543 196.946,-3.028L196.747,-3.183C196.618,-3.054 195.971,-2.424 195.799,-2.424C195.67,-2.424 195.639,-2.482 195.639,-2.602C195.639,-2.703 195.685,-2.87 195.763,-3.087L196.783,-6.05C196.849,-6.224 196.958,-6.524 196.958,-6.701C196.958,-6.875 196.872,-6.993 196.577,-6.993C195.862,-6.993 194.963,-5.99 194.605,-5.478L194.775,-5.313ZM196.849,-9.71C196.533,-9.71 196.269,-9.442 196.269,-9.162C196.269,-8.897 196.547,-8.635 196.849,-8.635C197.147,-8.635 197.419,-8.897 197.419,-9.162C197.419,-9.442 197.158,-9.71 196.849,-9.71M199.416,-6.818L198.206,-6.818L198.058,-6.341L199.28,-6.341L198.172,-2.843C198.108,-2.643 198.005,-2.33 198.005,-2.094C198.005,-1.793 198.193,-1.491 198.558,-1.491C199.464,-1.491 200.492,-2.586 201.053,-3.165L200.882,-3.367C200.553,-3.063 199.818,-2.354 199.333,-2.354C199.144,-2.354 199.082,-2.468 199.082,-2.609C199.082,-2.725 199.118,-2.865 199.154,-2.97L200.24,-6.341L201.567,-6.341L201.712,-6.818L200.377,-6.818L200.891,-8.287L199.897,-8.287L199.416,-6.818ZM202.279,-5.313C202.425,-5.5 202.903,-6.061 203.157,-6.061C203.266,-6.061 203.312,-6.001 203.312,-5.919C203.312,-5.815 203.266,-5.653 203.201,-5.487L202.13,-2.528C202.053,-2.294 201.988,-2.096 201.988,-1.958C201.988,-1.688 202.103,-1.491 202.462,-1.491C203.174,-1.491 204.062,-2.543 204.449,-3.028L204.243,-3.183C204.127,-3.054 203.478,-2.424 203.303,-2.424C203.174,-2.424 203.138,-2.482 203.138,-2.602C203.138,-2.703 203.192,-2.87 203.266,-3.087L204.287,-6.05C204.347,-6.224 204.459,-6.524 204.459,-6.701C204.459,-6.875 204.37,-6.993 204.071,-6.993C203.364,-6.993 202.462,-5.99 202.103,-5.478L202.279,-5.313ZM204.347,-9.71C204.039,-9.71 203.772,-9.442 203.772,-9.162C203.772,-8.897 204.051,-8.635 204.347,-8.635C204.645,-8.635 204.924,-8.897 204.924,-9.162C204.924,-9.442 204.661,-9.71 204.347,-9.71M209.54,-3.203C208.832,-2.563 208.097,-2.119 207.371,-2.119C206.782,-2.119 206.346,-2.433 206.346,-3.018C206.346,-3.322 206.373,-3.614 206.447,-3.918C207.781,-4.032 210.164,-4.582 210.164,-6.163C210.164,-6.807 209.505,-6.993 208.946,-6.993C207.134,-6.993 205.352,-4.931 205.352,-3.063C205.352,-2.283 205.737,-1.491 206.88,-1.491C207.978,-1.491 208.891,-2.154 209.712,-3.004L209.54,-3.203ZM206.507,-4.218C206.705,-4.989 207.697,-6.62 208.653,-6.62C208.979,-6.62 209.163,-6.423 209.163,-6.118C209.163,-4.848 207.655,-4.29 206.507,-4.218M210.842,-3.122C210.704,-2.89 210.551,-2.666 210.551,-2.399C210.551,-1.651 211.539,-1.491 212.138,-1.491C212.715,-1.491 213.214,-1.643 213.622,-2.026C213.947,-2.321 214.434,-2.819 214.434,-3.277C214.434,-4.488 212.224,-4.744 212.224,-5.698C212.224,-6.155 212.736,-6.364 213.16,-6.364C213.574,-6.364 214.075,-6.163 214.18,-5.945C214.236,-5.853 214.259,-5.769 214.362,-5.769L214.508,-5.769C214.655,-5.769 214.771,-6.155 214.771,-6.297C214.771,-6.865 214.195,-6.993 213.686,-6.993C213.291,-6.993 213.099,-6.936 212.759,-6.738C212.275,-6.446 211.401,-5.923 211.401,-5.318C211.401,-5.14 211.425,-4.942 211.514,-4.779C211.875,-4.022 213.696,-3.52 213.696,-2.712C213.696,-2.275 212.937,-2.187 212.582,-2.187C211.936,-2.187 211.126,-2.458 211.003,-3.122L210.842,-3.122Z" style="fill-rule:nonzero;"/>
    </g>
    <defs>
        <radialGradient id="_Radial1" cx="0" cy="0" r="1" gradientUnits="userSpaceOnUse" gradientTransform="matrix(1,0,0,-1,0,-0.759366)"><stop offset="0" style="stop-color:white;stop-opacity:1"/><stop offset="0.34" style="stop-color:rgb(76,201,245);stop-opacity:1"/><stop offset="0.39" style="stop-color:rgb(0,193,243);stop-opacity:1"/><stop offset="0.54" style="stop-color:rgb(0,174,239);stop-opacity:1"/><stop offset="1" style="stop-color:rgb(0,47,84);stop-opacity:1"/></radialGradient>
    </defs>
</svg>
