<?xml version="1.0" encoding="UTF-8" standalone="no"?>
<!DOCTYPE svg PUBLIC "-//W3C//DTD SVG 1.1//EN" "http://www.w3.org/Graphics/SVG/1.1/DTD/svg11.dtd">
<svg width="100%" height="100%" viewBox="0 0 512 307" version="1.1" xmlns="http://www.w3.org/2000/svg" xmlns:xlink="http://www.w3.org/1999/xlink" xml:space="preserve" xmlns:serif="http://www.serif.com/" style="fill-rule:evenodd;clip-rule:evenodd;stroke-linejoin:round;stroke-miterlimit:2;">
    <g transform="matrix(4.16667,0,0,4.16667,0,252.314)">
        <path d="M0,-38.426L25.461,-38.426L25.461,-32.236L6.843,-32.236L6.843,-22.793L24.482,-22.793L24.482,-16.605L6.843,-16.605L6.843,-6.181L26.437,-6.181L26.437,0L0,0L0,-38.426Z" style="fill:rgb(0,164,227);fill-rule:nonzero;"/>
    </g>
    <g transform="matrix(4.16667,0,0,4.16667,299.455,249.852)">
        <path d="M0,-12.483C0,-8.36 3.252,-4.94 7.654,-4.94C12.485,-4.94 15.417,-8.249 15.417,-12.594C15.417,-17.1 12.433,-20.247 7.71,-20.247C3.148,-20.247 0,-17.1 0,-12.483M21.604,-25.455L21.604,-1.736C21.604,7.657 17.044,13.625 6.897,13.625C2.062,13.625 -2.33,12.596 -6.024,9.338L-2.115,4.017C0.49,6.406 3.203,7.763 6.839,7.763C13.136,7.763 15.091,4.18 15.091,-0.974L15.091,-2.871L14.98,-2.871C13.083,-0.325 9.713,0.925 6.46,0.925C-1.355,0.925 -6.512,-5.049 -6.512,-12.429C-6.512,-20.136 -1.686,-26.108 6.353,-26.108C9.99,-26.108 13.408,-24.696 15.307,-21.547L15.417,-21.547L15.417,-25.455L21.604,-25.455Z" style="fill:rgb(0,164,227);fill-rule:nonzero;"/>
    </g>
    <g transform="matrix(4.16667,0,0,4.16667,484.023,208.924)">
        <path d="M0,-5.212C-0.056,-9.01 -2.55,-11.402 -6.625,-11.402C-10.48,-11.402 -12.869,-8.959 -13.355,-5.212L0,-5.212ZM-13.355,-0.326C-12.918,3.526 -9.991,5.859 -6.349,5.859C-3.097,5.859 -0.98,4.341 0.648,2.335L5.32,5.859C2.277,9.607 -1.574,11.074 -5.705,11.074C-13.573,11.074 -19.868,5.591 -19.868,-2.606C-19.868,-10.802 -13.573,-16.286 -5.705,-16.286C1.574,-16.286 6.512,-11.184 6.512,-2.118L6.512,-0.326L-13.355,-0.326Z" style="fill:rgb(0,164,227);fill-rule:nonzero;"/>
    </g>
    <g transform="matrix(3.60911,2.08218,2.08218,-3.60911,146.61,150.648)">
        <path d="M-3.178,-4.69L-2.098,-4.69L13.377,-4.696L5.097,-19.033L-3.178,-4.69Z" style="fill:rgb(0,164,227);fill-rule:nonzero;"/>
    </g>
    <g transform="matrix(4.16667,0,0,4.16667,195.062,40.2475)">
        <path d="M0,16.556L0,0L14.339,8.276L0,16.556Z" style="fill:rgb(0,164,227);fill-rule:nonzero;"/>
    </g>
    <g transform="matrix(4.16667,0,0,4.16667,258.132,80.4833)">
        <path d="M0,16.559L-14.338,8.278L0,0L0,16.559Z" style="fill:rgb(0,164,227);fill-rule:nonzero;"/>
    </g>
    <g transform="matrix(4.16667,0,0,4.16667,254.81,155.216)">
        <path d="M0,-0.001L-14.339,8.278L-14.339,-8.279L0,-0.001Z" style="fill:rgb(115,193,103);fill-rule:nonzero;"/>
    </g>
    <g transform="matrix(4.16667,0,0,4.16667,188.433,270.194)">
        <path d="M0,-16.554L0,0L-14.339,-8.278L0,-16.554Z" style="fill:rgb(115,193,103);fill-rule:nonzero;"/>
    </g>
    <g transform="matrix(4.16667,0,0,4.16667,195.062,270.194)">
        <path d="M0,-16.554L14.339,-8.278L0,0L0,-16.554Z" style="fill:rgb(0,164,227);fill-rule:nonzero;"/>
    </g>
    <g transform="matrix(4.16667,0,0,4.16667,198.389,195.465)">
        <path d="M0,-0.002L14.338,-8.279L14.338,8.277L0,-0.002Z" style="fill:rgb(0,164,227);fill-rule:nonzero;"/>
    </g>
    <g transform="matrix(4.16667,0,0,4.16667,258.132,68.9958)">
        <path d="M0,-16.559L0,0L-14.338,-8.281L0,-16.559Z" style="fill:rgb(115,193,103);fill-rule:nonzero;"/>
    </g>
    <g transform="matrix(0,4.16667,4.16667,0,193.054,185.088)">
        <path d="M-15.448,-1.109L1.109,-1.109L-6.031,-13.476L-7.173,-15.448L-15.448,-1.109Z" style="fill:rgb(0,164,227);fill-rule:nonzero;"/>
    </g>
</svg>
