<?xml version="1.0" encoding="UTF-8" standalone="no"?>
<!DOCTYPE svg PUBLIC "-//W3C//DTD SVG 1.1//EN" "http://www.w3.org/Graphics/SVG/1.1/DTD/svg11.dtd">
<svg width="100%" height="100%" viewBox="0 0 1629 342" version="1.1" xmlns="http://www.w3.org/2000/svg" xmlns:xlink="http://www.w3.org/1999/xlink" xml:space="preserve" xmlns:serif="http://www.serif.com/" style="fill-rule:evenodd;clip-rule:evenodd;stroke-linejoin:round;stroke-miterlimit:2;">
    <g transform="matrix(-4.16667,0,0,4.16667,3234.6,-1320.66)">
        <rect x="564.797" y="346.593" width="8.497" height="27.047" style="fill:rgb(16,48,83);"/>
    </g>
    <g transform="matrix(4.16667,0,0,4.16667,893.312,236.16)">
        <path d="M0,-27.056L18.927,-27.056L18.927,-20.541L8.485,-20.541L8.485,-16.163L17.77,-16.163L17.77,-9.655L8.485,-9.655L8.485,0L0,0L0,-27.056Z" style="fill:rgb(16,48,83);fill-rule:nonzero;"/>
    </g>
    <g transform="matrix(4.16667,0,0,4.16667,-1507.45,-1410.49)">
        <rect x="632.057" y="366.791" width="2.185" height="8.211" style="fill:rgb(41,171,226);"/>
    </g>
    <g transform="matrix(4.16667,0,0,4.16667,1141.11,151.418)">
        <path d="M0,-5.988L1.925,-5.988L1.925,-4.859L1.95,-4.859C2.376,-5.742 3.226,-6.129 4.186,-6.129C5.856,-6.129 6.529,-4.953 6.529,-3.681L6.529,0.141L4.407,0.141L4.407,-2.825C4.407,-3.975 4.011,-4.364 3.435,-4.364C2.566,-4.364 2.114,-3.766 2.114,-2.448L2.114,0.141L0,0.141L0,-5.988Z" style="fill:rgb(41,171,226);fill-rule:nonzero;"/>
    </g>
    <g transform="matrix(4.16667,0,0,4.16667,1171.06,144.16)">
        <path d="M0,-4.246L1.246,-4.246L1.246,-5.622L3.327,-6.269L3.327,-4.246L4.811,-4.246L4.811,-2.763L3.327,-2.763L3.327,-0.506C3.327,0.235 3.502,0.613 4.172,0.613C4.389,0.613 4.609,0.566 4.821,0.532L4.894,1.909C4.489,1.954 4.092,2.023 3.563,2.023C1.667,2.023 1.209,1.19 1.209,-0.267L1.209,-2.763L0,-2.763L0,-4.246Z" style="fill:rgb(41,171,226);fill-rule:nonzero;"/>
    </g>
    <g transform="matrix(4.16667,0,0,4.16667,1211.99,141.658)">
        <path d="M0,-1.164C0,-1.87 -0.329,-2.442 -1.173,-2.442C-1.945,-2.442 -2.31,-1.87 -2.355,-1.164L0,-1.164ZM-2.33,0.038C-2.215,0.885 -1.563,1.213 -0.529,1.213C0.041,1.213 0.701,1.086 1.337,0.742L1.337,2.236C0.663,2.509 -0.118,2.623 -0.91,2.623C-2.934,2.623 -4.469,1.436 -4.469,-0.587C-4.469,-2.61 -3.098,-3.787 -1.195,-3.787C1.078,-3.787 1.901,-2.175 1.901,-0.352L1.901,0.038L-2.33,0.038Z" style="fill:rgb(41,171,226);fill-rule:nonzero;"/>
    </g>
    <g transform="matrix(4.16667,0,0,4.16667,1242.27,144.367)">
        <path d="M0,-2.601C-0.241,-2.673 -0.47,-2.673 -0.719,-2.673C-1.706,-2.673 -2.259,-1.953 -2.259,-0.755L-2.259,1.835L-4.375,1.835L-4.375,-4.294L-2.444,-4.294L-2.444,-3.167L-2.421,-3.167C-2.063,-3.941 -1.531,-4.436 -0.611,-4.436C-0.364,-4.436 -0.106,-4.4 0.107,-4.364L0,-2.601Z" style="fill:rgb(41,171,226);fill-rule:nonzero;"/>
    </g>
    <g transform="matrix(4.16667,0,0,4.16667,1246.15,151.418)">
        <path d="M0,-5.988L1.94,-5.988L1.94,-4.859L1.956,-4.859C2.384,-5.742 3.234,-6.129 4.195,-6.129C5.867,-6.129 6.539,-4.953 6.539,-3.681L6.539,0.141L4.421,0.141L4.421,-2.825C4.421,-3.975 4.019,-4.364 3.439,-4.364C2.57,-4.364 2.122,-3.766 2.122,-2.448L2.122,0.141L0,0.141L0,-5.988Z" style="fill:rgb(41,171,226);fill-rule:nonzero;"/>
    </g>
    <g transform="matrix(4.16667,0,0,4.16667,1289.01,131.758)">
        <path d="M0,3.589C0.803,3.589 1.304,2.859 1.304,2.141C1.033,2.128 0.726,2.107 0.409,2.107C-0.301,2.107 -0.871,2.333 -0.871,2.921C-0.871,3.343 -0.496,3.589 0,3.589M1.461,4.861C1.446,4.529 1.412,4.214 1.412,3.894L1.39,3.894C0.909,4.659 0.319,4.999 -0.555,4.999C-1.767,4.999 -2.843,4.4 -2.843,3.073C-2.843,1.199 -0.813,0.981 0.319,0.981C0.658,0.981 1.033,1.013 1.304,1.059C1.294,0.225 0.669,0.002 -0.092,0.002C-0.778,0.002 -1.461,0.131 -2.048,0.459L-2.083,-0.974C-1.328,-1.277 -0.548,-1.41 0.366,-1.41C1.93,-1.41 3.28,-0.741 3.28,1.131L3.28,3.414C3.28,3.894 3.305,4.376 3.404,4.861L1.461,4.861Z" style="fill:rgb(41,171,226);fill-rule:nonzero;"/>
    </g>
    <g transform="matrix(4.16667,0,0,4.16667,1305.6,144.16)">
        <path d="M0,-4.246L1.238,-4.246L1.238,-5.622L3.324,-6.269L3.324,-4.246L4.806,-4.246L4.806,-2.763L3.324,-2.763L3.324,-0.506C3.324,0.235 3.498,0.613 4.171,0.613C4.382,0.613 4.599,0.566 4.819,0.532L4.886,1.909C4.489,1.954 4.089,2.023 3.559,2.023C1.663,2.023 1.203,1.19 1.203,-0.267L1.203,-2.763L0,-2.763L0,-4.246Z" style="fill:rgb(41,171,226);fill-rule:nonzero;"/>
    </g>
    <g transform="matrix(4.16667,0,0,4.16667,-1507.45,-1412.44)">
        <path d="M681.022,369.341L683.136,369.341L683.136,375.469L681.022,375.469L681.022,369.341ZM683.133,368.342L681.022,368.342L681.022,366.792L683.133,366.792L683.133,368.342Z" style="fill:rgb(41,171,226);fill-rule:nonzero;"/>
    </g>
    <g transform="matrix(4.16667,0,0,4.16667,1364.34,139.225)">
        <path d="M0,0.009C0,-0.908 -0.4,-1.719 -1.378,-1.719C-2.356,-1.719 -2.751,-0.908 -2.751,0.009C-2.751,0.917 -2.356,1.726 -1.378,1.726C-0.4,1.726 0,0.917 0,0.009M-4.938,0.009C-4.938,-2.025 -3.4,-3.202 -1.378,-3.202C0.644,-3.202 2.188,-2.025 2.188,0.009C2.188,2.033 0.644,3.211 -1.378,3.211C-3.4,3.211 -4.938,2.033 -4.938,0.009" style="fill:rgb(41,171,226);fill-rule:nonzero;"/>
    </g>
    <g transform="matrix(4.16667,0,0,4.16667,1377.24,151.418)">
        <path d="M0,-5.988L1.928,-5.988L1.928,-4.859L1.949,-4.859C2.374,-5.742 3.221,-6.129 4.187,-6.129C5.855,-6.129 6.529,-4.953 6.529,-3.681L6.529,0.141L4.403,0.141L4.403,-2.825C4.403,-3.975 4.006,-4.364 3.432,-4.364C2.558,-4.364 2.113,-3.766 2.113,-2.448L2.113,0.141L0,0.141L0,-5.988Z" style="fill:rgb(41,171,226);fill-rule:nonzero;"/>
    </g>
    <g transform="matrix(4.16667,0,0,4.16667,1420.05,131.758)">
        <path d="M0,3.589C0.806,3.589 1.307,2.859 1.307,2.141C1.034,2.128 0.733,2.107 0.409,2.107C-0.307,2.107 -0.87,2.333 -0.87,2.921C-0.87,3.343 -0.494,3.589 0,3.589M1.463,4.861C1.452,4.529 1.414,4.214 1.414,3.894L1.391,3.894C0.908,4.659 0.318,4.999 -0.546,4.999C-1.762,4.999 -2.842,4.4 -2.842,3.073C-2.842,1.199 -0.809,0.981 0.318,0.981C0.664,0.981 1.034,1.013 1.307,1.059C1.293,0.225 0.673,0.002 -0.095,0.002C-0.771,0.002 -1.457,0.131 -2.04,0.459L-2.082,-0.974C-1.326,-1.277 -0.535,-1.41 0.37,-1.41C1.934,-1.41 3.284,-0.741 3.284,1.131L3.284,3.414C3.284,3.894 3.308,4.376 3.399,4.861L1.463,4.861Z" style="fill:rgb(41,171,226);fill-rule:nonzero;"/>
    </g>
    <g transform="matrix(4.16667,0,0,4.16667,-1507.45,-1413.05)">
        <rect x="707.365" y="366.794" width="2.119" height="8.819" style="fill:rgb(41,171,226);"/>
    </g>
    <g transform="matrix(4.16667,0,0,4.16667,1126.17,198.484)">
        <path d="M0,-8.211L5.495,-8.211L5.495,-6.659L2.191,-6.659L2.191,-4.858L5.354,-4.858L5.354,-3.306L2.191,-3.306L2.191,0L0,0L0,-8.211Z" style="fill:rgb(41,171,226);fill-rule:nonzero;"/>
    </g>
    <g transform="matrix(4.16667,0,0,4.16667,-1507.45,-1319.51)">
        <path d="M638.689,358.188L640.809,358.188L640.809,364.319L638.689,364.319L638.689,358.188ZM640.809,357.19L638.69,357.19L638.69,355.638L640.809,355.638L640.809,357.19Z" style="fill:rgb(41,171,226);fill-rule:nonzero;"/>
    </g>
    <g transform="matrix(4.16667,0,0,4.16667,1168.62,197.891)">
        <path d="M0,-5.987L1.929,-5.987L1.929,-4.857L1.952,-4.857C2.374,-5.74 3.222,-6.13 4.186,-6.13C5.858,-6.13 6.533,-4.954 6.533,-3.68L6.533,0.143L4.41,0.143L4.41,-2.822C4.41,-3.976 4.014,-4.365 3.43,-4.365C2.563,-4.365 2.115,-3.762 2.115,-2.448L2.115,0.143L0,0.143L0,-5.987Z" style="fill:rgb(41,171,226);fill-rule:nonzero;"/>
    </g>
    <g transform="matrix(4.16667,0,0,4.16667,1211.45,178.218)">
        <path d="M0,3.593C0.796,3.593 1.307,2.864 1.307,2.145C1.032,2.132 0.73,2.11 0.413,2.11C-0.305,2.11 -0.871,2.334 -0.871,2.922C-0.871,3.345 -0.493,3.593 0,3.593M1.458,4.864C1.443,4.534 1.412,4.216 1.412,3.898L1.389,3.898C0.903,4.663 0.32,5.004 -0.558,5.004C-1.765,5.004 -2.847,4.405 -2.847,3.073C-2.847,1.205 -0.818,0.983 0.32,0.983C0.655,0.983 1.032,1.017 1.307,1.061C1.295,0.229 0.67,0.006 -0.092,0.006C-0.774,0.006 -1.459,0.134 -2.044,0.464L-2.081,-0.971C-1.327,-1.276 -0.544,-1.411 0.364,-1.411C1.931,-1.411 3.278,-0.737 3.278,1.135L3.278,3.413C3.278,3.898 3.304,4.382 3.401,4.864L1.458,4.864Z" style="fill:rgb(41,171,226);fill-rule:nonzero;"/>
    </g>
    <g transform="matrix(4.16667,0,0,4.16667,1230.26,197.891)">
        <path d="M0,-5.987L1.931,-5.987L1.931,-4.857L1.954,-4.857C2.375,-5.74 3.221,-6.13 4.186,-6.13C5.863,-6.13 6.526,-4.954 6.526,-3.68L6.526,0.143L4.41,0.143L4.41,-2.822C4.41,-3.976 4.013,-4.365 3.438,-4.365C2.569,-4.365 2.12,-3.762 2.12,-2.448L2.12,0.143L0,0.143L0,-5.987Z" style="fill:rgb(41,171,226);fill-rule:nonzero;"/>
    </g>
    <g transform="matrix(4.16667,0,0,4.16667,1282.47,191.156)">
        <path d="M0,-2.617C-0.391,-2.851 -0.783,-2.96 -1.281,-2.96C-2.204,-2.96 -2.91,-2.321 -2.91,-1.265C-2.91,-0.291 -2.084,0.346 -1.165,0.346C-0.679,0.346 -0.207,0.24 0.141,0.055L0.201,1.629C-0.328,1.804 -0.967,1.899 -1.529,1.899C-3.557,1.899 -5.101,0.72 -5.101,-1.3C-5.101,-3.337 -3.557,-4.516 -1.529,-4.516C-0.891,-4.516 -0.328,-4.405 0.141,-4.171L0,-2.617Z" style="fill:rgb(41,171,226);fill-rule:nonzero;"/>
    </g>
    <g transform="matrix(4.16667,0,0,4.16667,1303.88,188.14)">
        <path d="M0,-1.166C0,-1.869 -0.328,-2.447 -1.173,-2.447C-1.942,-2.447 -2.3,-1.869 -2.346,-1.166L0,-1.166ZM-2.32,0.037C-2.21,0.878 -1.562,1.213 -0.524,1.213C0.047,1.213 0.706,1.083 1.342,0.742L1.342,2.235C0.656,2.505 -0.119,2.622 -0.903,2.622C-2.923,2.622 -4.467,1.432 -4.467,-0.587C-4.467,-2.614 -3.098,-3.788 -1.184,-3.788C1.082,-3.788 1.908,-2.177 1.908,-0.353L1.908,0.037L-2.32,0.037Z" style="fill:rgb(41,171,226);fill-rule:nonzero;"/>
    </g>
    <g transform="matrix(4.16667,0,0,4.16667,1359.4,165.058)">
        <path d="M0,7.832C-0.624,7.983 -1.315,8.162 -2.439,8.162C-4.621,8.162 -7.149,7.056 -7.149,3.954C-7.149,1.091 -5.15,-0.33 -2.446,-0.33C-1.606,-0.33 -0.798,-0.14 -0.013,0.092L-0.19,1.866C-0.897,1.481 -1.578,1.294 -2.334,1.294C-3.882,1.294 -4.891,2.422 -4.891,3.954C-4.891,5.562 -3.75,6.538 -2.155,6.538C-1.436,6.538 -0.704,6.349 -0.107,6.113L0,7.832Z" style="fill:rgb(41,171,226);fill-rule:nonzero;"/>
    </g>
    <g transform="matrix(4.16667,0,0,4.16667,1382.01,185.684)">
        <path d="M0,0.012C0,-0.902 -0.401,-1.716 -1.381,-1.716C-2.353,-1.716 -2.754,-0.902 -2.754,0.012C-2.754,0.918 -2.353,1.731 -1.381,1.731C-0.401,1.731 0,0.918 0,0.012M-4.944,0.012C-4.944,-2.024 -3.403,-3.2 -1.381,-3.2C0.647,-3.2 2.189,-2.024 2.189,0.012C2.189,2.033 0.647,3.212 -1.381,3.212C-3.403,3.212 -4.944,2.033 -4.944,0.012" style="fill:rgb(41,171,226);fill-rule:nonzero;"/>
    </g>
    <g transform="matrix(4.16667,0,0,4.16667,1413.13,190.837)">
        <path d="M0,-2.599C-0.241,-2.671 -0.473,-2.671 -0.723,-2.671C-1.703,-2.671 -2.262,-1.951 -2.262,-0.754L-2.262,1.836L-4.378,1.836L-4.378,-4.294L-2.451,-4.294L-2.451,-3.164L-2.43,-3.164C-2.064,-3.942 -1.534,-4.435 -0.617,-4.435C-0.367,-4.435 -0.111,-4.398 0.104,-4.365L0,-2.599Z" style="fill:rgb(41,171,226);fill-rule:nonzero;"/>
    </g>
    <g transform="matrix(4.16667,0,0,4.16667,1430.64,202.005)">
        <path d="M0,-5.49C-0.78,-5.49 -1.298,-4.812 -1.298,-3.892C-1.298,-2.998 -0.704,-2.328 0,-2.328C0.792,-2.328 1.28,-2.998 1.28,-3.977C1.28,-4.786 0.817,-5.49 0,-5.49M-3.413,-6.974L-1.463,-6.974L-1.463,-5.869L-1.439,-5.869C-1.012,-6.727 -0.121,-7.116 0.849,-7.116C2.535,-7.116 3.47,-5.504 3.47,-4.021C3.47,-2.211 2.492,-0.705 0.666,-0.705C-0.077,-0.705 -0.873,-0.975 -1.273,-1.706L-1.298,-1.706L-1.298,1.626L-3.413,1.626L-3.413,-6.974Z" style="fill:rgb(41,171,226);fill-rule:nonzero;"/>
    </g>
    <g transform="matrix(4.16667,0,0,4.16667,1468.22,185.684)">
        <path d="M0,0.012C0,-0.902 -0.403,-1.716 -1.38,-1.716C-2.351,-1.716 -2.749,-0.902 -2.749,0.012C-2.749,0.918 -2.351,1.731 -1.38,1.731C-0.403,1.731 0,0.918 0,0.012M-4.947,0.012C-4.947,-2.024 -3.397,-3.2 -1.38,-3.2C0.645,-3.2 2.187,-2.024 2.187,0.012C2.187,2.033 0.645,3.212 -1.38,3.212C-3.397,3.212 -4.947,2.033 -4.947,0.012" style="fill:rgb(41,171,226);fill-rule:nonzero;"/>
    </g>
    <g transform="matrix(4.16667,0,0,4.16667,1499.33,190.837)">
        <path d="M0,-2.599C-0.231,-2.671 -0.465,-2.671 -0.713,-2.671C-1.702,-2.671 -2.256,-1.951 -2.256,-0.754L-2.256,1.836L-4.372,1.836L-4.372,-4.294L-2.441,-4.294L-2.441,-3.164L-2.418,-3.164C-2.059,-3.942 -1.527,-4.435 -0.611,-4.435C-0.363,-4.435 -0.103,-4.398 0.112,-4.365L0,-2.599Z" style="fill:rgb(41,171,226);fill-rule:nonzero;"/>
    </g>
    <g transform="matrix(4.16667,0,0,4.16667,1513.02,178.218)">
        <path d="M0,3.593C0.801,3.593 1.302,2.864 1.302,2.145C1.036,2.132 0.728,2.11 0.412,2.11C-0.312,2.11 -0.876,2.334 -0.876,2.922C-0.876,3.345 -0.498,3.593 0,3.593M1.458,4.864C1.445,4.534 1.41,4.216 1.41,3.898L1.386,3.898C0.902,4.663 0.311,5.004 -0.555,5.004C-1.767,5.004 -2.849,4.405 -2.849,3.073C-2.849,1.205 -0.814,0.983 0.311,0.983C0.659,0.983 1.036,1.017 1.302,1.061C1.29,0.229 0.669,0.006 -0.095,0.006C-0.78,0.006 -1.465,0.134 -2.053,0.464L-2.082,-0.971C-1.329,-1.276 -0.544,-1.411 0.362,-1.411C1.928,-1.411 3.283,-0.737 3.283,1.135L3.283,3.413C3.283,3.898 3.302,4.382 3.399,4.864L1.458,4.864Z" style="fill:rgb(41,171,226);fill-rule:nonzero;"/>
    </g>
    <g transform="matrix(4.16667,0,0,4.16667,1529.58,190.641)">
        <path d="M0,-4.247L1.248,-4.247L1.248,-5.621L3.329,-6.269L3.329,-4.247L4.808,-4.247L4.808,-2.763L3.329,-2.763L3.329,-0.507C3.329,0.233 3.499,0.612 4.174,0.612C4.383,0.612 4.608,0.563 4.82,0.53L4.891,1.905C4.485,1.952 4.089,2.022 3.563,2.022C1.673,2.022 1.209,1.182 1.209,-0.271L1.209,-2.763L0,-2.763L0,-4.247Z" style="fill:rgb(41,171,226);fill-rule:nonzero;"/>
    </g>
    <g transform="matrix(4.16667,0,0,4.16667,-1507.45,-1319.51)">
        <path d="M734.778,358.188L736.894,358.188L736.894,364.319L734.778,364.319L734.778,358.188ZM736.895,357.19L734.779,357.19L734.779,355.638L736.895,355.638L736.895,357.19Z" style="fill:rgb(41,171,226);fill-rule:nonzero;"/>
    </g>
    <g transform="matrix(4.16667,0,0,4.16667,1588.34,185.684)">
        <path d="M0,0.012C0,-0.902 -0.402,-1.716 -1.37,-1.716C-2.351,-1.716 -2.749,-0.902 -2.749,0.012C-2.749,0.918 -2.351,1.731 -1.37,1.731C-0.402,1.731 0,0.918 0,0.012M-4.938,0.012C-4.938,-2.024 -3.409,-3.2 -1.37,-3.2C0.646,-3.2 2.189,-2.024 2.189,0.012C2.189,2.033 0.646,3.212 -1.37,3.212C-3.409,3.212 -4.938,2.033 -4.938,0.012" style="fill:rgb(41,171,226);fill-rule:nonzero;"/>
    </g>
    <g transform="matrix(4.16667,0,0,4.16667,1601.23,197.891)">
        <path d="M0,-5.987L1.93,-5.987L1.93,-4.857L1.953,-4.857C2.373,-5.74 3.222,-6.13 4.183,-6.13C5.858,-6.13 6.526,-4.954 6.526,-3.68L6.526,0.143L4.412,0.143L4.412,-2.822C4.412,-3.976 4.01,-4.365 3.432,-4.365C2.565,-4.365 2.118,-3.762 2.118,-2.448L2.118,0.143L0,0.143L0,-5.987Z" style="fill:rgb(41,171,226);fill-rule:nonzero;"/>
    </g>
    <g transform="matrix(142.232,0,0,142.232,816.48,233.562)">
        <path d="M-1.156,-0.38C-1.156,-0.322 -1.148,-0.267 -1.133,-0.214C-1.132,-0.21 -1.131,-0.207 -1.13,-0.203C-1.13,-0.202 -1.13,-0.202 -1.129,-0.201C-1.053,0.046 -0.823,0.226 -0.551,0.226C-0.425,0.226 -0.309,0.187 -0.212,0.121C-0.211,0.121 -0.21,0.12 -0.209,0.12C-0.203,0.116 -0.197,0.112 -0.192,0.107C-0.081,0.025 0.001,-0.094 0.036,-0.233C0.038,-0.239 0.04,-0.246 0.041,-0.252C0.041,-0.254 0.041,-0.255 0.042,-0.257C0.05,-0.296 0.054,-0.338 0.054,-0.38C0.054,-0.461 0.038,-0.541 0.007,-0.615C0.001,-0.63 -0.016,-0.636 -0.03,-0.63C-0.045,-0.624 -0.051,-0.608 -0.045,-0.593C-0.017,-0.526 -0.002,-0.454 -0.002,-0.38C-0.002,-0.334 -0.008,-0.29 -0.018,-0.248C-0.026,-0.221 -0.041,-0.197 -0.061,-0.174C-0.061,-0.184 -0.06,-0.193 -0.06,-0.203C-0.06,-0.311 -0.09,-0.425 -0.146,-0.532C-0.105,-0.567 -0.079,-0.61 -0.07,-0.659C-0.067,-0.674 -0.077,-0.689 -0.093,-0.691C-0.108,-0.694 -0.123,-0.684 -0.125,-0.669C-0.131,-0.637 -0.148,-0.608 -0.174,-0.583C-0.182,-0.596 -0.19,-0.609 -0.199,-0.622C-0.248,-0.695 -0.307,-0.758 -0.371,-0.808C-0.287,-0.802 -0.208,-0.781 -0.145,-0.746C-0.135,-0.74 -0.122,-0.741 -0.113,-0.748C-0.101,-0.758 -0.099,-0.776 -0.109,-0.788C-0.2,-0.915 -0.357,-0.985 -0.551,-0.985C-0.885,-0.985 -1.156,-0.713 -1.156,-0.38ZM-0.537,-0.902C-0.562,-0.912 -0.588,-0.92 -0.612,-0.925C-0.592,-0.927 -0.572,-0.928 -0.552,-0.928C-0.542,-0.928 -0.53,-0.917 -0.518,-0.895C-0.524,-0.897 -0.531,-0.9 -0.537,-0.902ZM-0.476,-0.924C-0.453,-0.922 -0.429,-0.918 -0.404,-0.912C-0.419,-0.904 -0.436,-0.893 -0.452,-0.88C-0.459,-0.897 -0.467,-0.912 -0.476,-0.924ZM-0.381,-0.864C-0.362,-0.877 -0.344,-0.885 -0.329,-0.889C-0.301,-0.877 -0.273,-0.863 -0.246,-0.845C-0.289,-0.855 -0.334,-0.862 -0.381,-0.864ZM-0.838,-0.79C-0.831,-0.819 -0.814,-0.845 -0.787,-0.867C-0.721,-0.887 -0.645,-0.882 -0.564,-0.852C-0.598,-0.846 -0.632,-0.839 -0.665,-0.829C-0.727,-0.81 -0.786,-0.785 -0.84,-0.754C-0.841,-0.766 -0.84,-0.778 -0.838,-0.79ZM-0.891,-0.811C-0.892,-0.808 -0.892,-0.805 -0.893,-0.802C-0.899,-0.775 -0.898,-0.748 -0.891,-0.721C-0.952,-0.679 -1.004,-0.63 -1.046,-0.574C-1.059,-0.557 -1.07,-0.54 -1.081,-0.523C-1.05,-0.638 -0.982,-0.738 -0.891,-0.811ZM-0.769,-0.631C-0.793,-0.653 -0.81,-0.676 -0.822,-0.698C-0.77,-0.73 -0.711,-0.756 -0.649,-0.775C-0.612,-0.786 -0.575,-0.794 -0.537,-0.8C-0.591,-0.739 -0.645,-0.663 -0.694,-0.576C-0.723,-0.592 -0.748,-0.611 -0.769,-0.631ZM-0.529,-0.514C-0.57,-0.522 -0.608,-0.535 -0.644,-0.551C-0.592,-0.642 -0.534,-0.722 -0.477,-0.782C-0.46,-0.712 -0.445,-0.619 -0.439,-0.502C-0.468,-0.504 -0.499,-0.507 -0.529,-0.514ZM-0.417,-0.772C-0.353,-0.724 -0.295,-0.663 -0.245,-0.591C-0.236,-0.577 -0.227,-0.563 -0.219,-0.549C-0.264,-0.523 -0.321,-0.508 -0.382,-0.503C-0.388,-0.6 -0.399,-0.694 -0.417,-0.772ZM-0.981,-0.249C-1.029,-0.293 -1.061,-0.34 -1.078,-0.386C-1.065,-0.438 -1.039,-0.49 -1.001,-0.54C-0.966,-0.588 -0.921,-0.631 -0.87,-0.667C-0.855,-0.641 -0.834,-0.615 -0.808,-0.59C-0.783,-0.567 -0.754,-0.545 -0.721,-0.527C-0.73,-0.51 -0.739,-0.493 -0.748,-0.475C-0.798,-0.373 -0.838,-0.263 -0.862,-0.163C-0.907,-0.188 -0.947,-0.217 -0.981,-0.249ZM-0.616,-0.072C-0.685,-0.087 -0.751,-0.109 -0.811,-0.137C-0.791,-0.225 -0.755,-0.332 -0.697,-0.45C-0.689,-0.468 -0.68,-0.485 -0.671,-0.501C-0.631,-0.483 -0.587,-0.469 -0.541,-0.459C-0.506,-0.451 -0.471,-0.447 -0.436,-0.446C-0.436,-0.425 -0.435,-0.403 -0.435,-0.381C-0.435,-0.248 -0.446,-0.138 -0.461,-0.052C-0.512,-0.054 -0.563,-0.061 -0.616,-0.072ZM-0.379,-0.381C-0.379,-0.403 -0.379,-0.425 -0.38,-0.447C-0.31,-0.451 -0.245,-0.469 -0.192,-0.5C-0.143,-0.403 -0.117,-0.3 -0.117,-0.203C-0.117,-0.175 -0.119,-0.149 -0.124,-0.123C-0.149,-0.108 -0.178,-0.095 -0.211,-0.083C-0.269,-0.064 -0.335,-0.053 -0.404,-0.051C-0.387,-0.152 -0.379,-0.268 -0.379,-0.381ZM-1.079,-0.229C-1.084,-0.248 -1.087,-0.266 -1.088,-0.285C-1.069,-0.259 -1.046,-0.233 -1.019,-0.207C-0.978,-0.169 -0.929,-0.135 -0.874,-0.106C-0.886,-0.044 -0.889,0.013 -0.882,0.058C-0.975,-0.013 -1.046,-0.113 -1.079,-0.229ZM-0.788,0.115C-0.79,0.114 -0.792,0.112 -0.794,0.112C-0.825,0.096 -0.838,0.027 -0.822,-0.08C-0.762,-0.053 -0.696,-0.032 -0.627,-0.017C-0.575,-0.006 -0.523,0.001 -0.473,0.004C-0.497,0.112 -0.529,0.169 -0.551,0.169C-0.552,0.169 -0.553,0.169 -0.555,0.169C-0.638,0.169 -0.718,0.149 -0.788,0.115ZM-0.414,0.005C-0.335,0.004 -0.26,-0.008 -0.193,-0.03C-0.176,-0.036 -0.16,-0.042 -0.145,-0.049C-0.163,-0.003 -0.191,0.034 -0.226,0.062C-0.296,0.114 -0.379,0.15 -0.469,0.163C-0.447,0.124 -0.428,0.069 -0.414,0.005Z" style="fill:url(#_Radial1);fill-rule:nonzero;"/>
    </g>
    <g transform="matrix(4.16667,0,0,4.16667,1057.53,121.902)">
        <path d="M0,25.793C-1.577,26.336 -3.923,26.879 -6.072,26.879C-13.405,26.879 -19.293,22.152 -19.293,12.508C-19.293,3.447 -13.154,-1.086 -6.072,-1.086C-3.731,-1.086 -2.34,-0.737 -0.064,-0.233L-0.064,6.891C-1.45,6.351 -2.878,5.885 -4.3,5.885C-7.907,5.885 -10.626,8.247 -10.626,12.666C-10.626,17.311 -8.093,19.674 -4.586,19.674C-3.035,19.674 -1.549,19.284 0,18.628L0,25.793Z" style="fill:rgb(16,48,83);fill-rule:nonzero;"/>
    </g>
    <g transform="matrix(4.16667,0,0,4.16667,1094.03,114.766)">
        <path d="M0,31.105C-0.202,31.105 -0.368,30.936 -0.368,30.733L-0.368,0.371C-0.368,0.167 -0.202,0 0,0C0.205,0 0.371,0.167 0.371,0.371L0.371,30.733C0.371,30.936 0.205,31.105 0,31.105" style="fill:rgb(16,48,83);fill-rule:nonzero;"/>
    </g>
    <g transform="matrix(4.16667,0,0,4.16667,1150.21,243.685)">
        <path d="M0,-5.404L1.304,-5.404L-0.246,0.005L-1.548,0.005L-2.49,-3.389L-3.445,0.005L-4.745,0.005L-6.301,-5.404L-4.962,-5.404L-4.05,-1.458L-2.961,-5.404L-1.995,-5.404L-0.946,-1.458L0,-5.404ZM3.888,-0.959C4.346,-0.959 5.113,-1.185 5.113,-2.693C5.113,-4.202 4.346,-4.428 3.888,-4.428C3.094,-4.428 2.662,-3.81 2.662,-2.693C2.662,-1.574 3.094,-0.959 3.888,-0.959M3.888,-5.451C5.057,-5.451 6.305,-4.724 6.305,-2.693C6.305,-0.673 5.057,0.047 3.888,0.047C2.72,0.047 1.468,-0.673 1.468,-2.693C1.468,-4.724 2.72,-5.451 3.888,-5.451M8.109,-2.876L8.756,-2.876C9.397,-2.876 9.791,-3.175 9.791,-3.654C9.791,-4.16 9.447,-4.45 8.844,-4.45L8.109,-4.45L8.109,-2.876ZM10.494,-1.636C10.688,-1.25 10.857,-0.912 11.228,-0.912L11.503,-0.912L11.503,-0.025L11.466,-0.016C11.457,-0.016 11.257,0.039 10.91,0.039C10.001,0.039 9.725,-0.584 9.474,-1.136C9.267,-1.589 9.1,-1.981 8.618,-1.981L8.109,-1.981L8.109,0.005L6.963,0.005L6.963,-5.404L8.875,-5.404C10.283,-5.404 10.935,-4.854 10.935,-3.683C10.935,-2.963 10.492,-2.51 10.063,-2.319C10.253,-2.137 10.381,-1.881 10.494,-1.636M13.202,-5.404L12.047,-5.404L12.047,0.005L15.537,0.005L15.537,-0.955L13.202,-0.955L13.202,-5.404ZM17.23,-0.955L17.897,-0.955C18.732,-0.955 19.228,-1.576 19.228,-2.624C19.228,-3.838 18.701,-4.45 17.666,-4.45L17.23,-4.45L17.23,-0.955ZM17.683,-5.404C19.367,-5.404 20.371,-4.358 20.371,-2.609C20.371,-0.949 19.471,0.005 17.909,0.005L16.075,0.005L16.075,-5.404L17.683,-5.404ZM23.583,-0.955L24.479,-0.955C25.069,-0.955 25.347,-1.177 25.347,-1.649C25.347,-2.231 24.859,-2.352 24.456,-2.352L23.583,-2.352L23.583,-0.955ZM24.362,-3.194C24.84,-3.194 25.071,-3.397 25.071,-3.829C25.071,-4.237 24.783,-4.45 24.223,-4.45L23.583,-4.45L23.583,-3.194L24.362,-3.194ZM25.649,-2.849C26.059,-2.729 26.605,-2.344 26.605,-1.532C26.605,-0.557 25.919,0.005 24.707,0.005L22.426,0.005L22.426,-5.404L24.486,-5.404C25.658,-5.404 26.251,-4.917 26.251,-3.95C26.251,-3.206 25.915,-2.938 25.649,-2.849M29.271,-3.93L28.69,-2.224L29.87,-2.224L29.271,-3.93ZM29.861,-5.367L31.828,0.005L30.627,0.005L30.173,-1.322L28.372,-1.322L27.917,0.005L26.717,0.005L28.704,-5.404L29.845,-5.404L29.861,-5.367ZM35.194,-2.066L33.309,-5.404L32.135,-5.404L32.135,0.005L33.294,0.005L33.294,-3.222L35.175,0.005L36.347,0.005L36.347,-5.404L35.194,-5.404L35.194,-2.066ZM41.705,-5.404L40.339,-5.404L38.55,-2.971L38.55,-5.404L37.381,-5.404L37.381,0.005L38.55,0.005L38.55,-2.484L40.383,0.005L41.769,0.005L39.676,-2.724L41.705,-5.404ZM45.162,-1.974L46.344,-1.974L46.344,-1.912C46.344,-1.561 46.221,-0.975 45.394,-0.975C44.606,-0.975 44.146,-1.615 44.146,-2.693C44.146,-3.798 44.592,-4.428 45.365,-4.428C46.297,-4.428 46.33,-3.487 46.33,-3.45L46.33,-3.389L47.404,-3.554L47.404,-3.603C47.404,-3.993 47.06,-5.451 45.351,-5.451C43.832,-5.451 42.954,-4.445 42.954,-2.693C42.954,-0.975 43.858,0.047 45.365,0.047C46.891,0.047 47.429,-1.01 47.429,-1.922L47.429,-2.857L45.162,-2.857L45.162,-1.974ZM49.375,-2.876L50.015,-2.876C50.658,-2.876 51.05,-3.175 51.05,-3.654C51.05,-4.16 50.707,-4.45 50.098,-4.45L49.375,-4.45L49.375,-2.876ZM51.756,-1.636C51.946,-1.25 52.114,-0.912 52.495,-0.912L52.761,-0.912L52.761,-0.025L52.729,-0.016C52.718,-0.016 52.514,0.039 52.163,0.039C51.256,0.039 50.979,-0.584 50.732,-1.136C50.529,-1.589 50.356,-1.981 49.882,-1.981L49.375,-1.981L49.375,0.005L48.22,0.005L48.22,-5.404L50.145,-5.404C51.536,-5.404 52.192,-4.854 52.192,-3.683C52.192,-2.963 51.756,-2.51 51.316,-2.319C51.516,-2.137 51.634,-1.881 51.756,-1.636M55.369,-0.959C55.826,-0.959 56.597,-1.185 56.597,-2.693C56.597,-4.202 55.826,-4.428 55.369,-4.428C54.577,-4.428 54.133,-3.81 54.133,-2.693C54.133,-1.574 54.577,-0.959 55.369,-0.959M55.369,-5.451C56.536,-5.451 57.781,-4.724 57.781,-2.693C57.781,-0.673 56.536,0.047 55.369,0.047C54.197,0.047 52.945,-0.673 52.945,-2.693C52.945,-4.724 54.197,-5.451 55.369,-5.451M61.544,-2.164C61.544,-1.371 61.241,-0.982 60.612,-0.982C59.981,-0.982 59.656,-1.381 59.656,-2.164L59.656,-5.404L58.512,-5.404L58.512,-2.242C58.502,-1.464 58.701,-0.877 59.082,-0.489C59.439,-0.136 59.955,0.047 60.612,0.047C61.563,0.047 62.695,-0.349 62.695,-2.242L62.695,-5.404L61.544,-5.404L61.544,-2.164ZM64.816,-2.669L65.501,-2.669C66.17,-2.669 66.511,-2.968 66.511,-3.542C66.511,-4.124 66.143,-4.45 65.463,-4.45L64.816,-4.45L64.816,-2.669ZM65.55,-5.404C66.914,-5.404 67.669,-4.745 67.669,-3.542C67.669,-2.409 66.923,-1.731 65.686,-1.731L64.816,-1.731L64.816,0.005L63.664,0.005L63.664,-5.404L65.55,-5.404Z" style="fill:rgb(16,48,83);fill-rule:nonzero;"/>
    </g>
    <g transform="matrix(4.16667,0,0,4.16667,688.201,337.25)">
        <path d="M0,-10.081L-0.156,-10.163C-0.274,-10.065 -0.392,-9.918 -0.56,-9.918C-0.993,-9.918 -1.231,-10.493 -3.19,-10.493C-5.999,-10.493 -8.357,-8.35 -8.357,-5.69C-8.357,-3.2 -6.509,-1.573 -3.991,-1.573C-3.294,-1.573 -2.912,-1.645 -2.307,-1.853C-1.994,-1.962 -1.6,-2.147 -1.414,-2.147C-1.268,-2.147 -1.138,-2.098 -1.058,-2.048L-0.538,-4.131L-0.826,-4.193C-1.455,-2.821 -2.307,-1.962 -3.976,-1.962C-6.01,-1.962 -6.994,-3.557 -6.994,-5.69C-6.994,-7.712 -5.608,-10.104 -2.926,-10.104C-2.203,-10.104 -1.625,-9.909 -1.205,-9.514C-0.711,-9.048 -0.64,-8.533 -0.694,-7.993L-0.432,-7.924L0,-10.081ZM0.433,-5.507C0.644,-5.752 1.185,-6.327 1.538,-6.327C1.708,-6.327 1.784,-6.143 1.784,-6.008C1.784,-5.825 1.696,-5.484 1.627,-5.287L0.597,-1.903C0.58,-1.867 0.57,-1.833 0.57,-1.795C0.57,-1.681 0.816,-1.573 0.988,-1.573C1.223,-1.573 1.433,-1.584 1.458,-1.674L1.696,-2.454C2.123,-3.705 3.059,-6.084 3.965,-6.084C4.121,-6.084 4.294,-6.036 4.448,-6.036C4.854,-6.036 5,-6.66 5,-6.94C5,-7.21 4.87,-7.357 4.591,-7.357C3.768,-7.357 2.533,-5.203 2.181,-4.577L2.149,-4.577L2.654,-6.255C2.73,-6.52 2.783,-6.759 2.783,-6.892C2.783,-7.22 2.577,-7.357 2.247,-7.357C1.604,-7.357 0.597,-6.169 0.264,-5.715L0.433,-5.507ZM9.817,-3.372C9.068,-2.7 8.298,-2.233 7.532,-2.233C6.916,-2.233 6.459,-2.563 6.459,-3.176C6.459,-3.497 6.484,-3.804 6.562,-4.123C7.966,-4.244 10.47,-4.82 10.47,-6.484C10.47,-7.163 9.777,-7.357 9.187,-7.357C7.283,-7.357 5.411,-5.19 5.411,-3.223C5.411,-2.404 5.812,-1.573 7.026,-1.573C8.174,-1.573 9.138,-2.269 9.999,-3.163L9.817,-3.372ZM6.628,-4.438C6.834,-5.248 7.873,-6.965 8.881,-6.965C9.228,-6.965 9.42,-6.759 9.42,-6.438C9.42,-5.102 7.835,-4.515 6.628,-4.438M11.837,-3.321C11.837,-4.539 13.331,-6.781 14.749,-6.781C15.087,-6.781 15.406,-6.461 15.406,-6.156C15.406,-5.065 13.779,-2.478 12.505,-2.478C11.994,-2.478 11.837,-2.909 11.837,-3.321M15.941,-6.952C15.746,-7.185 15.443,-7.357 15.116,-7.357C13.424,-7.357 10.866,-4.539 10.866,-2.59C10.866,-2.149 11.064,-1.573 11.86,-1.573C12.911,-1.573 14.127,-2.982 14.803,-3.923L14.814,-3.888L14.447,-2.808C14.327,-2.467 14.221,-2.123 14.221,-1.914C14.221,-1.67 14.475,-1.573 14.67,-1.573C15.499,-1.573 16.257,-2.661 16.769,-3.163L16.562,-3.321C16.31,-3.117 15.969,-2.6 15.59,-2.6C15.471,-2.6 15.43,-2.689 15.43,-2.772C15.43,-2.895 15.443,-2.969 15.483,-3.08L16.785,-7.429C16.795,-7.479 16.81,-7.506 16.81,-7.528C16.81,-7.563 16.769,-7.589 16.689,-7.589L16.413,-7.589C16.257,-7.589 16.182,-7.429 16.126,-7.345L15.941,-6.952ZM19.315,-7.172L18.043,-7.172L17.887,-6.671L19.171,-6.671L18.005,-2.993C17.938,-2.785 17.837,-2.453 17.837,-2.208C17.837,-1.89 18.031,-1.573 18.409,-1.573C19.367,-1.573 20.442,-2.723 21.035,-3.333L20.852,-3.545C20.509,-3.223 19.734,-2.478 19.222,-2.478C19.021,-2.478 18.962,-2.6 18.962,-2.747C18.962,-2.869 18.997,-3.016 19.039,-3.127L20.179,-6.671L21.571,-6.671L21.731,-7.172L20.324,-7.172L20.861,-8.716L19.814,-8.716L19.315,-7.172ZM22.321,-5.589C22.479,-5.787 22.978,-6.377 23.255,-6.377C23.356,-6.377 23.412,-6.313 23.412,-6.229C23.412,-6.118 23.356,-5.948 23.292,-5.774L22.164,-2.662C22.084,-2.417 22.02,-2.209 22.02,-2.061C22.02,-1.781 22.138,-1.573 22.524,-1.573C23.267,-1.573 24.202,-2.678 24.608,-3.188L24.392,-3.349C24.267,-3.216 23.58,-2.553 23.399,-2.553C23.267,-2.553 23.229,-2.613 23.229,-2.738C23.229,-2.847 23.277,-3.02 23.356,-3.253L24.435,-6.363C24.501,-6.547 24.619,-6.864 24.619,-7.049C24.619,-7.233 24.528,-7.357 24.213,-7.357C23.46,-7.357 22.524,-6.302 22.138,-5.763L22.321,-5.589ZM24.501,-10.212C24.172,-10.212 23.897,-9.932 23.897,-9.636C23.897,-9.358 24.188,-9.083 24.501,-9.083C24.813,-9.083 25.099,-9.358 25.099,-9.636C25.099,-9.932 24.826,-10.212 24.501,-10.212M25.664,-5.589L26.024,-5.957C26.258,-6.178 26.511,-6.378 26.779,-6.378C26.939,-6.378 26.993,-6.278 26.993,-6.155C26.993,-6.008 26.915,-5.774 26.833,-5.541L25.551,-1.914C25.616,-1.833 25.838,-1.755 25.968,-1.755C26.129,-1.755 26.415,-1.795 26.458,-1.892L26.719,-2.594C27.073,-3.526 27.635,-4.374 28.357,-5.099C28.793,-5.555 29.537,-6.378 30.271,-6.378C30.421,-6.378 30.575,-6.302 30.575,-6.143C30.575,-5.969 30.443,-5.641 30.404,-5.531L29.384,-2.922C29.234,-2.566 29.196,-2.358 29.196,-2.159C29.196,-1.942 29.355,-1.755 29.699,-1.755C30.421,-1.755 31.065,-2.295 31.52,-2.821L31.99,-3.36L31.767,-3.521C31.574,-3.238 30.99,-2.661 30.641,-2.661C30.456,-2.661 30.404,-2.772 30.404,-2.922C30.404,-3.068 30.482,-3.265 30.602,-3.557L31.649,-6.255C31.717,-6.427 31.784,-6.66 31.784,-6.854C31.784,-7.125 31.667,-7.357 31.261,-7.357C29.97,-7.37 28.027,-5.347 27.397,-4.501L27.375,-4.501L28.056,-6.351C28.109,-6.501 28.202,-6.734 28.202,-6.94C28.202,-7.172 28.068,-7.357 27.755,-7.357C26.888,-7.357 25.968,-6.39 25.467,-5.813L25.664,-5.589ZM34.617,-2.922C34.484,-2.983 34.366,-3.029 34.366,-3.19C34.366,-3.314 34.655,-3.584 34.775,-3.618C34.971,-3.594 35.183,-3.584 35.378,-3.584C36.667,-3.584 38.025,-4.401 38.025,-5.69C38.025,-6.069 37.9,-6.427 37.603,-6.718C38.105,-6.671 38.37,-6.403 38.639,-6.403C38.855,-6.403 38.959,-6.634 38.959,-6.854C38.959,-7.024 38.922,-7.21 38.749,-7.21C38.605,-7.21 38.469,-7.136 38.341,-7.062C38.21,-6.989 38.068,-6.916 37.91,-6.916C37.831,-6.916 37.726,-6.952 37.636,-6.977C36.968,-7.136 36.678,-7.357 35.901,-7.357C34.669,-7.357 33.347,-6.45 33.347,-5.3C33.347,-4.515 33.754,-4.131 34.459,-3.767C34.104,-3.545 33.396,-3.176 33.396,-2.711C33.396,-2.368 33.883,-2.188 34.131,-2.04C33.396,-1.77 32.071,-1.265 32.071,-0.372C32.071,0.817 33.843,1.037 34.775,1.037C35.837,1.037 37.698,0.537 37.698,-0.701C37.698,-1.413 37.284,-1.622 36.678,-1.927L34.617,-2.922ZM36.191,-1.082C36.528,-0.922 36.834,-0.677 36.834,-0.347C36.834,0.451 35.562,0.648 34.93,0.648C34.131,0.648 32.938,0.354 32.938,-0.566C32.938,-1.253 34.258,-1.793 34.525,-1.882L36.191,-1.082ZM36.983,-5.995C36.983,-5.161 36.401,-3.9 35.353,-3.9C34.633,-3.9 34.393,-4.401 34.393,-4.99C34.393,-5.801 34.981,-7.088 36.049,-7.039C36.728,-7.039 36.983,-6.51 36.983,-5.995M42.572,-1.755C43.161,-1.77 43.762,-1.781 44.355,-1.781C44.732,-1.781 45.116,-1.755 45.495,-1.755L45.562,-2.073L45.035,-2.073C44.606,-2.073 44.512,-2.269 44.512,-2.553C44.512,-2.661 44.552,-2.785 44.578,-2.909L46.009,-8.596L46.035,-8.596L47.767,-1.755L48.211,-1.755L52.201,-9.026L52.228,-9.026L51.742,-2.933C51.678,-2.171 51.387,-2.073 50.629,-2.073L50.469,-2.073L50.403,-1.755C51.031,-1.77 51.663,-1.781 52.291,-1.781C52.857,-1.781 53.432,-1.755 54.001,-1.755L54.063,-2.073L53.85,-2.073C53.143,-2.073 52.905,-2.294 52.948,-2.955L53.369,-9.16C53.406,-9.724 53.62,-9.991 54.378,-9.991L54.523,-9.991L54.588,-10.309C54.154,-10.309 53.697,-10.287 53.245,-10.287C52.931,-10.287 52.621,-10.285 52.308,-10.309L48.53,-3.396L46.742,-10.309C46.358,-10.309 45.98,-10.287 45.6,-10.287C45.182,-10.287 44.776,-10.285 44.367,-10.309L44.307,-9.991L44.472,-9.991C45.044,-9.98 45.447,-9.909 45.665,-9.329L44.038,-3.249C43.752,-2.185 43.511,-2.073 42.776,-2.073L42.635,-2.073L42.572,-1.755ZM55.851,-3.321C55.851,-4.539 57.341,-6.781 58.758,-6.781C59.1,-6.781 59.413,-6.461 59.413,-6.156C59.413,-5.065 57.79,-2.478 56.517,-2.478C56.007,-2.478 55.851,-2.909 55.851,-3.321M59.954,-6.952C59.756,-7.185 59.456,-7.357 59.131,-7.357C57.434,-7.357 54.878,-4.539 54.878,-2.59C54.878,-2.149 55.074,-1.573 55.873,-1.573C56.923,-1.573 58.143,-2.982 58.811,-3.923L58.824,-3.888L58.458,-2.808C58.344,-2.467 58.238,-2.123 58.238,-1.914C58.238,-1.67 58.481,-1.573 58.68,-1.573C59.505,-1.573 60.268,-2.661 60.78,-3.163L60.571,-3.321C60.324,-3.117 59.981,-2.6 59.602,-2.6C59.485,-2.6 59.444,-2.689 59.444,-2.772C59.444,-2.895 59.456,-2.969 59.494,-3.08L60.794,-7.429C60.81,-7.479 60.821,-7.506 60.821,-7.528C60.821,-7.563 60.78,-7.589 60.701,-7.589L60.427,-7.589C60.268,-7.589 60.185,-7.429 60.138,-7.345L59.954,-6.952ZM61.741,-5.507C61.952,-5.752 62.492,-6.327 62.84,-6.327C63.015,-6.327 63.092,-6.143 63.092,-6.008C63.092,-5.825 62.999,-5.484 62.934,-5.287L61.898,-1.903C61.884,-1.867 61.872,-1.833 61.872,-1.795C61.872,-1.681 62.121,-1.573 62.291,-1.573C62.531,-1.573 62.736,-1.584 62.764,-1.674L62.999,-2.454C63.432,-3.705 64.363,-6.084 65.271,-6.084C65.424,-6.084 65.599,-6.036 65.754,-6.036C66.162,-6.036 66.305,-6.66 66.305,-6.94C66.305,-7.21 66.173,-7.357 65.903,-7.357C65.073,-7.357 63.845,-5.203 63.487,-4.577L63.459,-4.577L63.958,-6.255C64.038,-6.52 64.088,-6.759 64.088,-6.892C64.088,-7.22 63.878,-7.357 63.551,-7.357C62.909,-7.357 61.898,-6.169 61.569,-5.715L61.741,-5.507ZM66.626,-1.843C66.584,-1.706 66.804,-1.584 67.056,-1.584C67.331,-1.584 67.488,-1.645 67.542,-1.83L68.183,-4.039C68.5,-3.975 68.7,-3.753 68.869,-3.521L69.8,-2.367C70.207,-1.877 70.691,-1.573 71.358,-1.573C71.79,-1.573 72.238,-1.67 72.633,-1.89L72.633,-2.208C72.524,-2.147 72.368,-2.073 72.238,-2.073C71.79,-2.073 71.592,-2.136 71.268,-2.396C70.652,-2.885 70.036,-3.876 69.427,-4.109L69.427,-4.131C70.586,-4.389 72.368,-5.223 72.368,-6.45C72.368,-7.024 71.975,-7.357 71.385,-7.357C70.336,-7.357 69.106,-6.266 68.628,-5.642L68.603,-5.642L70.126,-11.07L70.009,-11.118C69.604,-10.993 68.643,-10.787 68.209,-10.714L68.173,-10.52L68.811,-10.152L66.626,-1.843ZM71.401,-6.046C71.401,-5.062 69.716,-4.379 68.778,-4.302C68.591,-4.294 68.406,-4.279 68.222,-4.279C68.472,-5.116 69.591,-6.622 70.701,-6.622C71.187,-6.622 71.401,-6.377 71.401,-6.046M78.038,-3.372C77.292,-2.7 76.513,-2.233 75.755,-2.233C75.138,-2.233 74.677,-2.563 74.677,-3.176C74.677,-3.497 74.705,-3.804 74.784,-4.123C76.19,-4.244 78.695,-4.82 78.695,-6.484C78.695,-7.163 77.997,-7.357 77.411,-7.357C75.506,-7.357 73.633,-5.19 73.633,-3.223C73.633,-2.404 74.037,-1.573 75.243,-1.573C76.398,-1.573 77.355,-2.269 78.22,-3.163L78.038,-3.372ZM74.85,-4.438C75.058,-5.248 76.096,-6.965 77.105,-6.965C77.448,-6.965 77.646,-6.759 77.646,-6.438C77.646,-5.102 76.053,-4.515 74.85,-4.438M81.04,-7.172L79.77,-7.172L79.614,-6.671L80.896,-6.671L79.73,-2.993C79.665,-2.785 79.561,-2.453 79.561,-2.208C79.561,-1.89 79.758,-1.573 80.136,-1.573C81.094,-1.573 82.168,-2.723 82.76,-3.333L82.578,-3.545C82.234,-3.223 81.465,-2.478 80.948,-2.478C80.752,-2.478 80.69,-2.6 80.69,-2.747C80.69,-2.869 80.727,-3.016 80.767,-3.127L81.905,-6.671L83.298,-6.671L83.455,-7.172L82.056,-7.172L82.591,-8.716L81.541,-8.716L81.04,-7.172ZM83.704,-3.288C83.566,-3.041 83.406,-2.808 83.406,-2.528C83.406,-1.74 84.443,-1.573 85.07,-1.573C85.673,-1.573 86.203,-1.732 86.631,-2.136C86.976,-2.444 87.483,-2.969 87.483,-3.451C87.483,-4.724 85.166,-4.991 85.166,-5.995C85.166,-6.475 85.699,-6.693 86.148,-6.693C86.581,-6.693 87.104,-6.484 87.223,-6.255C87.276,-6.156 87.303,-6.069 87.407,-6.069L87.561,-6.069C87.72,-6.069 87.839,-6.475 87.839,-6.622C87.839,-7.22 87.236,-7.357 86.699,-7.357C86.279,-7.357 86.086,-7.297 85.727,-7.088C85.212,-6.781 84.298,-6.231 84.298,-5.594C84.298,-5.407 84.321,-5.199 84.409,-5.029C84.796,-4.232 86.71,-3.705 86.71,-2.856C86.71,-2.396 85.911,-2.305 85.542,-2.305C84.861,-2.305 84.006,-2.59 83.879,-3.288L83.704,-3.288ZM88.261,-0.04C89.478,-0.004 90.789,-0.787 90.789,-2.024C90.789,-2.6 90.477,-3.188 89.795,-3.188C89.432,-3.188 88.945,-3.055 88.945,-2.478C88.945,-2.32 88.985,-2.185 89.102,-2.06C89.363,-1.803 89.548,-1.877 89.836,-1.74C89.911,-1.69 89.928,-1.595 89.928,-1.524C89.928,-0.615 88.956,-0.383 88.169,-0.287L88.261,-0.04ZM104.448,-10.081L104.294,-10.163C104.177,-10.065 104.058,-9.918 103.893,-9.918C103.454,-9.918 103.222,-10.493 101.263,-10.493C98.455,-10.493 96.097,-8.35 96.097,-5.69C96.097,-3.2 97.942,-1.573 100.465,-1.573C101.16,-1.573 101.541,-1.645 102.144,-1.853C102.459,-1.962 102.853,-2.147 103.035,-2.147C103.18,-2.147 103.31,-2.098 103.389,-2.048L103.914,-4.131L103.626,-4.193C102.995,-2.821 102.144,-1.962 100.478,-1.962C98.444,-1.962 97.455,-3.557 97.455,-5.69C97.455,-7.712 98.851,-10.104 101.53,-10.104C102.25,-10.104 102.829,-9.909 103.246,-9.514C103.744,-9.048 103.811,-8.533 103.756,-7.993L104.022,-7.924L104.448,-10.081ZM104.883,-5.507C105.097,-5.752 105.631,-6.327 105.992,-6.327C106.16,-6.327 106.24,-6.143 106.24,-6.008C106.24,-5.825 106.144,-5.484 106.078,-5.287L105.047,-1.903C105.032,-1.867 105.017,-1.833 105.017,-1.795C105.017,-1.681 105.267,-1.573 105.437,-1.573C105.674,-1.573 105.88,-1.584 105.911,-1.674L106.144,-2.454C106.575,-3.705 107.509,-6.084 108.414,-6.084C108.575,-6.084 108.746,-6.036 108.903,-6.036C109.306,-6.036 109.447,-6.66 109.447,-6.94C109.447,-7.21 109.318,-7.357 109.044,-7.357C108.216,-7.357 106.981,-5.203 106.63,-4.577L106.605,-4.577L107.106,-6.255C107.183,-6.52 107.237,-6.759 107.237,-6.892C107.237,-7.22 107.027,-7.357 106.693,-7.357C106.054,-7.357 105.047,-6.169 104.718,-5.715L104.883,-5.507ZM114.266,-3.372C113.517,-2.7 112.747,-2.233 111.983,-2.233C111.367,-2.233 110.907,-2.563 110.907,-3.176C110.907,-3.497 110.934,-3.804 111.014,-4.123C112.416,-4.244 114.922,-4.82 114.922,-6.484C114.922,-7.163 114.23,-7.357 113.639,-7.357C111.734,-7.357 109.861,-5.19 109.861,-3.223C109.861,-2.404 110.266,-1.573 111.472,-1.573C112.626,-1.573 113.584,-2.269 114.452,-3.163L114.266,-3.372ZM111.08,-4.438C111.287,-5.248 112.321,-6.965 113.331,-6.965C113.675,-6.965 113.876,-6.759 113.876,-6.438C113.876,-5.102 112.288,-4.515 111.08,-4.438M116.287,-3.321C116.287,-4.539 117.786,-6.781 119.204,-6.781C119.543,-6.781 119.853,-6.461 119.853,-6.156C119.853,-5.065 118.232,-2.478 116.959,-2.478C116.448,-2.478 116.287,-2.909 116.287,-3.321M120.394,-6.952C120.198,-7.185 119.896,-7.357 119.567,-7.357C117.874,-7.357 115.315,-4.539 115.315,-2.59C115.315,-2.149 115.511,-1.573 116.31,-1.573C117.364,-1.573 118.584,-2.982 119.249,-3.923L119.265,-3.888L118.897,-2.808C118.782,-2.467 118.677,-2.123 118.677,-1.914C118.677,-1.67 118.927,-1.573 119.124,-1.573C119.947,-1.573 120.707,-2.661 121.22,-3.163L121.013,-3.321C120.765,-3.117 120.419,-2.6 120.04,-2.6C119.926,-2.6 119.884,-2.689 119.884,-2.772C119.884,-2.895 119.896,-2.969 119.935,-3.08L121.232,-7.429C121.25,-7.479 121.262,-7.506 121.262,-7.528C121.262,-7.563 121.22,-7.589 121.145,-7.589L120.869,-7.589C120.707,-7.589 120.629,-7.429 120.58,-7.345L120.394,-6.952ZM123.763,-7.172L122.499,-7.172L122.339,-6.671L123.623,-6.671L122.455,-2.993C122.39,-2.785 122.283,-2.453 122.283,-2.208C122.283,-1.89 122.481,-1.573 122.861,-1.573C123.82,-1.573 124.897,-2.723 125.489,-3.333L125.304,-3.545C124.96,-3.223 124.186,-2.478 123.676,-2.478C123.478,-2.478 123.412,-2.6 123.412,-2.747C123.412,-2.869 123.453,-3.016 123.495,-3.127L124.636,-6.671L126.025,-6.671L126.182,-7.172L124.778,-7.172L125.318,-8.716L124.266,-8.716L123.763,-7.172ZM126.772,-5.589C126.93,-5.787 127.429,-6.377 127.707,-6.377C127.816,-6.377 127.857,-6.313 127.857,-6.229C127.857,-6.118 127.816,-5.948 127.747,-5.774L126.613,-2.662C126.539,-2.417 126.473,-2.209 126.473,-2.061C126.473,-1.781 126.594,-1.573 126.973,-1.573C127.721,-1.573 128.65,-2.678 129.055,-3.188L128.845,-3.349C128.716,-3.216 128.032,-2.553 127.849,-2.553C127.721,-2.553 127.676,-2.613 127.676,-2.738C127.676,-2.847 127.734,-3.02 127.816,-3.253L128.885,-6.363C128.953,-6.547 129.068,-6.864 129.068,-7.049C129.068,-7.233 128.979,-7.357 128.662,-7.357C127.913,-7.357 126.973,-6.302 126.594,-5.763L126.772,-5.589ZM128.953,-10.212C128.621,-10.212 128.35,-9.932 128.35,-9.636C128.35,-9.358 128.639,-9.083 128.953,-9.083C129.269,-9.083 129.555,-9.358 129.555,-9.636C129.555,-9.932 129.278,-10.212 128.953,-10.212M130.119,-5.589L130.476,-5.957C130.712,-6.178 130.961,-6.378 131.233,-6.378C131.393,-6.378 131.446,-6.278 131.446,-6.155C131.446,-6.008 131.368,-5.774 131.286,-5.541L130.003,-1.914C130.064,-1.833 130.289,-1.755 130.423,-1.755C130.582,-1.755 130.871,-1.795 130.901,-1.892L131.17,-2.594C131.524,-3.526 132.088,-4.374 132.811,-5.099C133.242,-5.555 133.987,-6.378 134.727,-6.378C134.87,-6.378 135.03,-6.302 135.03,-6.143C135.03,-5.969 134.896,-5.641 134.854,-5.531L133.832,-2.922C133.689,-2.566 133.645,-2.358 133.645,-2.159C133.645,-1.942 133.806,-1.755 134.15,-1.755C134.87,-1.755 135.515,-2.295 135.969,-2.821L136.444,-3.36L136.22,-3.521C136.021,-3.238 135.441,-2.661 135.09,-2.661C134.91,-2.661 134.854,-2.772 134.854,-2.922C134.854,-3.068 134.932,-3.265 135.054,-3.557L136.105,-6.255C136.167,-6.427 136.233,-6.66 136.233,-6.854C136.233,-7.125 136.112,-7.357 135.706,-7.357C134.424,-7.37 132.481,-5.347 131.852,-4.501L131.822,-4.501L132.51,-6.351C132.56,-6.501 132.652,-6.734 132.652,-6.94C132.652,-7.172 132.523,-7.357 132.207,-7.357C131.338,-7.357 130.423,-6.39 129.926,-5.813L130.119,-5.589ZM139.066,-2.922C138.937,-2.983 138.818,-3.029 138.818,-3.19C138.818,-3.314 139.102,-3.584 139.229,-3.618C139.418,-3.594 139.633,-3.584 139.835,-3.584C141.119,-3.584 142.479,-4.401 142.479,-5.69C142.479,-6.069 142.352,-6.427 142.06,-6.718C142.562,-6.671 142.82,-6.403 143.098,-6.403C143.31,-6.403 143.409,-6.634 143.409,-6.854C143.409,-7.024 143.372,-7.21 143.203,-7.21C143.05,-7.21 142.93,-7.136 142.789,-7.062C142.665,-6.989 142.518,-6.916 142.363,-6.916C142.285,-6.916 142.175,-6.952 142.08,-6.977C141.42,-7.136 141.132,-7.357 140.355,-7.357C139.12,-7.357 137.794,-6.45 137.794,-5.3C137.794,-4.515 138.202,-4.131 138.91,-3.767C138.559,-3.545 137.845,-3.176 137.845,-2.711C137.845,-2.368 138.336,-2.188 138.583,-2.04C137.845,-1.77 136.529,-1.265 136.529,-0.372C136.529,0.817 138.295,1.037 139.229,1.037C140.287,1.037 142.15,0.537 142.15,-0.701C142.15,-1.413 141.736,-1.622 141.132,-1.927L139.066,-2.922ZM140.641,-1.082C140.987,-0.922 141.29,-0.677 141.29,-0.347C141.29,0.451 140.011,0.648 139.379,0.648C138.583,0.648 137.388,0.354 137.388,-0.566C137.388,-1.253 138.714,-1.793 138.979,-1.882L140.641,-1.082ZM141.436,-5.995C141.436,-5.161 140.852,-3.9 139.802,-3.9C139.077,-3.9 138.843,-4.401 138.843,-4.99C138.843,-5.801 139.433,-7.088 140.5,-7.039C141.176,-7.039 141.436,-6.51 141.436,-5.995M149.272,-5.357C149.272,-7.554 150.473,-10.104 153.189,-10.104C155.42,-10.104 156.392,-8.448 156.392,-6.61C156.392,-4.564 155.079,-1.962 152.488,-1.962C150.192,-1.962 149.272,-3.435 149.272,-5.357M147.992,-5.618C147.992,-3.117 149.801,-1.573 152.428,-1.573C155.473,-1.573 157.675,-3.84 157.675,-6.634C157.675,-8.952 155.538,-10.493 153.175,-10.493C150.3,-10.493 147.992,-8.325 147.992,-5.618M160.5,-6.916C159.958,-6.769 159.433,-6.597 158.926,-6.39L158.829,-5.911C159.327,-6.156 159.87,-6.327 160.395,-6.501L158.398,0.941L158.475,1.037C158.762,1 158.998,0.979 159.384,0.941C159.842,0.903 160.172,0.88 160.54,0.852L160.602,0.633L159.542,0.461L160.185,-1.927C160.473,-1.719 160.851,-1.573 161.231,-1.573C163.147,-1.573 165.022,-4.197 165.022,-5.84C165.022,-6.99 164.161,-7.357 163.04,-7.357C162.374,-7.357 161.878,-7.234 161.596,-7.136L162.002,-8.678L160.912,-8.387L160.5,-6.916ZM161.495,-6.781C161.741,-6.892 162.151,-6.965 162.622,-6.965C163.081,-6.965 163.898,-6.829 163.898,-5.825C163.898,-4.636 162.609,-1.89 161.246,-1.89C160.778,-1.89 160.519,-2.444 160.519,-2.71C160.519,-3.176 160.616,-3.424 160.667,-3.705L161.495,-6.781ZM167.726,-6.916C167.185,-6.769 166.667,-6.597 166.153,-6.39L166.063,-5.911C166.56,-6.156 167.096,-6.327 167.619,-6.501L165.625,0.941L165.711,1.037C165.992,1 166.231,0.979 166.615,0.941C167.069,0.903 167.405,0.88 167.77,0.852L167.831,0.633L166.775,0.461L167.414,-1.927C167.701,-1.719 168.082,-1.573 168.46,-1.573C170.377,-1.573 172.253,-4.197 172.253,-5.84C172.253,-6.99 171.388,-7.357 170.272,-7.357C169.606,-7.357 169.106,-7.234 168.835,-7.136L169.239,-8.678L168.148,-8.387L167.726,-6.916ZM168.727,-6.781C168.976,-6.892 169.381,-6.965 169.855,-6.965C170.311,-6.965 171.128,-6.829 171.128,-5.825C171.128,-4.636 169.842,-1.89 168.473,-1.89C168.005,-1.89 167.753,-2.444 167.753,-2.71C167.753,-3.176 167.846,-3.424 167.902,-3.705L168.727,-6.781ZM174.577,-3.618C174.577,-4.967 175.275,-7.039 177.031,-7.039C178.158,-7.039 178.514,-6.178 178.514,-5.31C178.514,-4.049 177.791,-1.89 176.103,-1.89C174.945,-1.89 174.577,-2.7 174.577,-3.618M173.528,-4.037C173.528,-2.553 174.535,-1.573 176.11,-1.573C177.99,-1.573 179.564,-3.141 179.564,-4.866C179.564,-6.278 178.564,-7.357 177.042,-7.357C175.138,-7.357 173.528,-5.801 173.528,-4.037M180.666,-5.507C180.874,-5.752 181.413,-6.327 181.765,-6.327C181.941,-6.327 182.019,-6.143 182.019,-6.008C182.019,-5.825 181.927,-5.484 181.857,-5.287L180.822,-1.903C180.806,-1.867 180.797,-1.833 180.797,-1.795C180.797,-1.681 181.048,-1.573 181.219,-1.573C181.452,-1.573 181.661,-1.584 181.688,-1.674L181.927,-2.454C182.357,-3.705 183.289,-6.084 184.193,-6.084C184.352,-6.084 184.521,-6.036 184.673,-6.036C185.086,-6.036 185.23,-6.66 185.23,-6.94C185.23,-7.21 185.099,-7.357 184.825,-7.357C183.996,-7.357 182.764,-5.203 182.415,-4.577L182.386,-4.577L182.88,-6.255C182.961,-6.52 183.012,-6.759 183.012,-6.892C183.012,-7.22 182.804,-7.357 182.478,-7.357C181.833,-7.357 180.822,-6.169 180.496,-5.715L180.666,-5.507ZM187.29,-7.172L186.021,-7.172L185.861,-6.671L187.149,-6.671L185.981,-2.993C185.916,-2.785 185.81,-2.453 185.81,-2.208C185.81,-1.89 186.006,-1.573 186.384,-1.573C187.343,-1.573 188.421,-2.723 189.004,-3.333L188.827,-3.545C188.483,-3.223 187.712,-2.478 187.202,-2.478C187.003,-2.478 186.936,-2.6 186.936,-2.747C186.936,-2.869 186.975,-3.016 187.014,-3.127L188.156,-6.671L189.548,-6.671L189.703,-7.172L188.298,-7.172L188.84,-8.716L187.788,-8.716L187.29,-7.172ZM196.095,-3.424C195.832,-3.223 195.292,-2.661 194.953,-2.661C194.81,-2.661 194.756,-2.738 194.756,-2.835C194.756,-2.885 194.77,-2.942 194.798,-3.005L196.229,-7.003C196.084,-7.123 195.863,-7.357 195.638,-7.357C195.373,-7.357 195.281,-7.197 195.187,-6.977C194.745,-5.885 192.266,-2.738 191.375,-2.738C191.256,-2.738 191.149,-2.772 191.149,-2.856C191.149,-2.922 191.166,-2.969 191.176,-3.029L192.358,-6.323C192.46,-6.585 192.53,-6.768 192.53,-6.964C192.53,-7.21 192.358,-7.357 192.098,-7.357C191.477,-7.357 190.782,-6.718 190.242,-6.216L189.798,-5.789L190.012,-5.579C190.258,-5.813 190.718,-6.378 191.092,-6.378C191.231,-6.378 191.274,-6.289 191.274,-6.196C191.274,-6.058 191.215,-5.911 191.215,-5.924L190.075,-2.76C189.998,-2.528 189.94,-2.333 189.94,-2.234C189.94,-1.977 190.209,-1.755 190.493,-1.755C191.777,-1.755 193.916,-4.489 194.564,-5.264L194.589,-5.264L193.8,-3.09C193.653,-2.7 193.549,-2.382 193.549,-2.188C193.549,-1.914 193.723,-1.755 194.038,-1.755C194.916,-1.755 195.742,-2.7 196.28,-3.249L196.095,-3.424ZM197.295,-5.589L197.645,-5.957C197.881,-6.178 198.129,-6.378 198.406,-6.378C198.565,-6.378 198.616,-6.278 198.616,-6.155C198.616,-6.008 198.534,-5.774 198.461,-5.541L197.172,-1.914C197.237,-1.833 197.459,-1.755 197.591,-1.755C197.749,-1.755 198.039,-1.795 198.079,-1.892L198.338,-2.594C198.694,-3.526 199.259,-4.374 199.978,-5.099C200.414,-5.555 201.166,-6.378 201.895,-6.378C202.041,-6.378 202.195,-6.302 202.195,-6.143C202.195,-5.969 202.069,-5.641 202.029,-5.531L201.004,-2.922C200.861,-2.566 200.821,-2.358 200.821,-2.159C200.821,-1.942 200.98,-1.755 201.315,-1.755C202.041,-1.755 202.686,-2.295 203.142,-2.821L203.615,-3.36L203.39,-3.521C203.195,-3.238 202.615,-2.661 202.266,-2.661C202.081,-2.661 202.029,-2.772 202.029,-2.922C202.029,-3.068 202.106,-3.265 202.222,-3.557L203.272,-6.255C203.336,-6.427 203.404,-6.66 203.404,-6.854C203.404,-7.125 203.289,-7.357 202.881,-7.357C201.593,-7.37 199.651,-5.347 199.02,-4.501L199.002,-4.501L199.68,-6.351C199.734,-6.501 199.824,-6.734 199.824,-6.94C199.824,-7.172 199.694,-7.357 199.378,-7.357C198.51,-7.357 197.591,-6.39 197.094,-5.813L197.295,-5.589ZM204.757,-5.589C204.912,-5.787 205.416,-6.377 205.692,-6.377C205.796,-6.377 205.847,-6.313 205.847,-6.229C205.847,-6.118 205.796,-5.948 205.725,-5.774L204.599,-2.662C204.521,-2.417 204.453,-2.209 204.453,-2.061C204.453,-1.781 204.578,-1.573 204.953,-1.573C205.701,-1.573 206.634,-2.678 207.041,-3.188L206.832,-3.349C206.696,-3.216 206.018,-2.553 205.834,-2.553C205.701,-2.553 205.664,-2.613 205.664,-2.738C205.664,-2.847 205.715,-3.02 205.796,-3.253L206.872,-6.363C206.936,-6.547 207.053,-6.864 207.053,-7.049C207.053,-7.233 206.959,-7.357 206.648,-7.357C205.903,-7.357 204.953,-6.302 204.578,-5.763L204.757,-5.589ZM206.936,-10.212C206.605,-10.212 206.33,-9.932 206.33,-9.636C206.33,-9.358 206.619,-9.083 206.936,-9.083C207.251,-9.083 207.537,-9.358 207.537,-9.636C207.537,-9.932 207.264,-10.212 206.936,-10.212M209.638,-7.172L208.365,-7.172L208.21,-6.671L209.495,-6.671L208.328,-2.993C208.264,-2.785 208.154,-2.453 208.154,-2.208C208.154,-1.89 208.354,-1.573 208.734,-1.573C209.687,-1.573 210.768,-2.723 211.358,-3.333L211.178,-3.545C210.836,-3.223 210.061,-2.478 209.548,-2.478C209.349,-2.478 209.285,-2.6 209.285,-2.747C209.285,-2.869 209.325,-3.016 209.36,-3.127L210.502,-6.671L211.895,-6.671L212.053,-7.172L210.648,-7.172L211.189,-8.716L210.138,-8.716L209.638,-7.172ZM212.646,-5.589C212.8,-5.787 213.303,-6.377 213.573,-6.377C213.682,-6.377 213.735,-6.313 213.735,-6.229C213.735,-6.118 213.682,-5.948 213.615,-5.774L212.488,-2.662C212.406,-2.417 212.342,-2.209 212.342,-2.061C212.342,-1.781 212.466,-1.573 212.837,-1.573C213.592,-1.573 214.523,-2.678 214.929,-3.188L214.711,-3.349C214.587,-3.216 213.904,-2.553 213.723,-2.553C213.592,-2.553 213.551,-2.613 213.551,-2.738C213.551,-2.847 213.603,-3.02 213.682,-3.253L214.756,-6.363C214.824,-6.547 214.936,-6.864 214.936,-7.049C214.936,-7.233 214.85,-7.357 214.531,-7.357C213.784,-7.357 212.837,-6.302 212.466,-5.763L212.646,-5.589ZM214.824,-10.212C214.493,-10.212 214.219,-9.932 214.219,-9.636C214.219,-9.358 214.508,-9.083 214.824,-9.083C215.135,-9.083 215.424,-9.358 215.424,-9.636C215.424,-9.932 215.15,-10.212 214.824,-10.212M220.279,-3.372C219.536,-2.7 218.762,-2.233 217.996,-2.233C217.381,-2.233 216.923,-2.563 216.923,-3.176C216.923,-3.497 216.949,-3.804 217.028,-4.123C218.428,-4.244 220.933,-4.82 220.933,-6.484C220.933,-7.163 220.242,-7.357 219.652,-7.357C217.749,-7.357 215.875,-5.19 215.875,-3.223C215.875,-2.404 216.28,-1.573 217.482,-1.573C218.638,-1.573 219.596,-2.269 220.463,-3.163L220.279,-3.372ZM217.092,-4.438C217.298,-5.248 218.338,-6.965 219.348,-6.965C219.69,-6.965 219.885,-6.759 219.885,-6.438C219.885,-5.102 218.297,-4.515 217.092,-4.438M221.646,-3.288C221.5,-3.041 221.346,-2.808 221.346,-2.528C221.346,-1.74 222.382,-1.573 223.009,-1.573C223.614,-1.573 224.143,-1.732 224.571,-2.136C224.917,-2.444 225.427,-2.969 225.427,-3.451C225.427,-4.724 223.099,-4.991 223.099,-5.995C223.099,-6.475 223.64,-6.693 224.083,-6.693C224.519,-6.693 225.044,-6.484 225.161,-6.255C225.213,-6.156 225.243,-6.069 225.348,-6.069L225.502,-6.069C225.656,-6.069 225.776,-6.475 225.776,-6.622C225.776,-7.22 225.176,-7.357 224.639,-7.357C224.222,-7.357 224.023,-7.297 223.666,-7.088C223.156,-6.781 222.236,-6.231 222.236,-5.594C222.236,-5.407 222.262,-5.199 222.352,-5.029C222.731,-4.232 224.65,-3.705 224.65,-2.856C224.65,-2.396 223.854,-2.305 223.479,-2.305C222.799,-2.305 221.946,-2.59 221.819,-3.288L221.646,-3.288Z" style="fill:rgb(33,29,30);fill-rule:nonzero;"/>
    </g>
    <g transform="matrix(4.16667,0,0,4.16667,0,265.244)">
        <path d="M0,-40.388L26.763,-40.388L26.763,-33.887L7.191,-33.887L7.191,-23.961L25.734,-23.961L25.734,-17.456L7.191,-17.456L7.191,-6.497L27.79,-6.497L27.79,0L0,0L0,-40.388Z" style="fill:rgb(25,163,221);fill-rule:nonzero;"/>
    </g>
    <g transform="matrix(4.16667,0,0,4.16667,314.795,262.659)">
        <path d="M0,-13.123C0,-8.788 3.418,-5.193 8.047,-5.193C13.123,-5.193 16.206,-8.674 16.206,-13.242C16.206,-17.975 13.069,-21.284 8.105,-21.284C3.309,-21.284 0,-17.975 0,-13.123M22.711,-26.762L22.711,-1.826C22.711,8.047 17.917,14.324 7.25,14.324C2.168,14.324 -2.451,13.24 -6.334,9.815L-2.223,4.222C0.513,6.734 3.367,8.16 7.19,8.16C13.809,8.16 15.865,4.394 15.865,-1.026L15.865,-3.021L15.749,-3.021C13.752,-0.341 10.211,0.972 6.791,0.972C-1.424,0.972 -6.845,-5.307 -6.845,-13.067C-6.845,-21.168 -1.773,-27.447 6.678,-27.447C10.499,-27.447 14.093,-25.963 16.089,-22.65L16.206,-22.65L16.206,-26.762L22.711,-26.762Z" style="fill:rgb(25,163,221);fill-rule:nonzero;"/>
    </g>
    <g transform="matrix(4.16667,0,0,4.16667,508.817,219.625)">
        <path d="M0,-5.477C-0.058,-9.471 -2.68,-11.985 -6.963,-11.985C-11.017,-11.985 -13.527,-9.417 -14.038,-5.477L0,-5.477ZM-14.038,-0.342C-13.58,3.708 -10.503,6.162 -6.675,6.162C-3.254,6.162 -1.029,4.564 0.68,2.455L5.591,6.162C2.394,10.1 -1.655,11.642 -5.995,11.642C-14.269,11.642 -20.885,5.877 -20.885,-2.739C-20.885,-11.354 -14.269,-17.119 -5.995,-17.119C1.656,-17.119 6.845,-11.756 6.845,-2.226L6.845,-0.342L-14.038,-0.342Z" style="fill:rgb(26,162,220);fill-rule:nonzero;"/>
    </g>
    <g transform="matrix(3.61045,2.07985,2.07985,-3.61045,154.084,158.376)">
        <path d="M-3.338,-4.923L-2.2,-4.923L14.065,-4.942L5.35,-20.006L-3.338,-4.923Z" style="fill:rgb(26,162,220);fill-rule:nonzero;"/>
    </g>
    <g transform="matrix(4.16667,0,0,4.16667,205.057,42.3038)">
        <path d="M0,17.406L0,0L15.072,8.703L0,17.406Z" style="fill:rgb(26,162,220);fill-rule:nonzero;"/>
    </g>
    <g transform="matrix(4.16667,0,0,4.16667,271.355,84.6071)">
        <path d="M0,17.407L-15.072,8.704L0,0L0,17.407Z" style="fill:rgb(26,162,220);fill-rule:nonzero;"/>
    </g>
    <g transform="matrix(4.16667,0,0,4.16667,267.856,163.171)">
        <path d="M0,-0.002L-15.072,8.702L-15.072,-8.704L0,-0.002Z" style="fill:rgb(116,193,104);fill-rule:nonzero;"/>
    </g>
    <g transform="matrix(4.16667,0,0,4.16667,198.078,284.039)">
        <path d="M0,-17.403L0,0L-15.072,-8.702L0,-17.403Z" style="fill:rgb(116,193,104);fill-rule:nonzero;"/>
    </g>
    <g transform="matrix(4.16667,0,0,4.16667,205.057,284.039)">
        <path d="M0,-17.403L15.072,-8.702L0,0L0,-17.403Z" style="fill:rgb(26,162,220);fill-rule:nonzero;"/>
    </g>
    <g transform="matrix(4.16667,0,0,4.16667,208.554,205.479)">
        <path d="M0,-0.001L15.072,-8.702L15.072,8.701L0,-0.001Z" style="fill:rgb(26,162,220);fill-rule:nonzero;"/>
    </g>
    <g transform="matrix(4.16667,0,0,4.16667,271.355,72.5292)">
        <path d="M0,-17.407L0,0L-15.072,-8.704L0,-17.407Z" style="fill:rgb(115,193,103);fill-rule:nonzero;"/>
    </g>
    <g transform="matrix(0,4.16667,4.16667,0,202.94,194.568)">
        <path d="M-16.239,-1.167L1.167,-1.167L-6.337,-14.166L-7.538,-16.239L-16.239,-1.167Z" style="fill:rgb(26,162,220);fill-rule:nonzero;"/>
    </g>
    <defs>
        <radialGradient id="_Radial1" cx="0" cy="0" r="1" gradientUnits="userSpaceOnUse" gradientTransform="matrix(1,0,0,-1,0,-0.75933)"><stop offset="0" style="stop-color:white;stop-opacity:1"/><stop offset="0.54" style="stop-color:rgb(41,171,226);stop-opacity:1"/><stop offset="1" style="stop-color:rgb(16,48,83);stop-opacity:1"/></radialGradient>
    </defs>
</svg>
