<?xml version="1.0" encoding="utf-8"?>
<svg height="512" viewBox="0 0 512 512" width="512" xmlns="http://www.w3.org/2000/svg">
		<path id="WhatsApp" d="M24,11.7c0,6.5-5.3,11.7-11.8,11.7c-2.1,0-4-0.5-5.7-1.5L0,24l2.1-6.3c-1.1-1.8-1.7-3.8-1.7-6
			C0.4,5.2,5.7,0,12.2,0S24,5.2,24,11.7z M12.2,1.9c-5.5,0-9.9,4.4-9.9,9.8c0,2.2,0.7,4.1,1.9,5.8L3,21.1l3.8-1.2
			c1.6,1,3.4,1.6,5.4,1.6c5.5,0,9.9-4.4,9.9-9.8S17.7,1.9,12.2,1.9z M18.2,14.4c-0.1-0.1-0.3-0.2-0.6-0.3c-0.3-0.1-1.7-0.8-2-0.9
			C15.4,13,15.2,13,15,13.3s-0.7,0.9-0.9,1.1c-0.2,0.2-0.3,0.2-0.6,0.1c-0.3-0.1-1.2-0.4-2.3-1.4c-0.9-0.8-1.4-1.7-1.6-2
			c-0.2-0.3,0-0.4,0.1-0.6c0.1-0.1,0.3-0.3,0.4-0.5c0.1-0.2,0.2-0.3,0.3-0.5s0-0.4,0-0.5c-0.1-0.1-0.7-1.6-0.9-2.1
			C9.2,6.3,9,6.4,8.8,6.4s-0.4,0-0.6,0s-0.5,0-0.7,0.3c-0.3,0.3-1,1-1,2.4c0,1.4,1,2.8,1.2,3c0.1,0.2,2,3.2,4.9,4.3s2.9,0.8,3.5,0.7
			c0.5,0,1.7-0.7,1.9-1.4C18.2,15.1,18.2,14.5,18.2,14.4z"/>
</svg>
